<svg width="596" height="132" viewBox="0 0 596 132" fill="none" xmlns="http://www.w3.org/2000/svg">
<path d="M26.9273 67H20.1017V18.6207H-8.04602e-05V14.4953H47.0291V18.6207H26.9273V67ZM59.7796 14.4953H66.6052V48.7734C66.6052 49.7735 66.6302 50.7736 66.6802 51.7736C66.7303 52.7737 66.9053 53.7738 67.2053 54.7739C67.5053 55.724 67.9554 56.6991 68.5554 57.6992C69.1555 58.6993 70.0305 59.6994 71.1806 60.6994C72.6308 61.9996 74.1559 62.9746 75.7561 63.6247C77.4062 64.2748 79.2814 64.5998 81.3816 64.5998C83.8318 64.5998 86.182 64.2498 88.4322 63.5497C90.6824 62.8496 92.7076 61.5245 94.5077 59.5743C95.5078 58.4742 96.2579 57.3741 96.7579 56.274C97.308 55.174 97.708 54.0739 97.958 52.9738C98.208 51.8237 98.3581 50.6986 98.4081 49.5985C98.4581 48.4484 98.4831 47.3233 98.4831 46.2232V14.4953H101.783V48.6984C101.783 51.3486 101.358 53.8488 100.508 56.199C99.6582 58.4992 98.3831 60.5244 96.6829 62.2746C95.0328 64.0247 92.9576 65.3999 90.4574 66.3999C88.0071 67.4 85.1819 67.9001 81.9816 67.9001C76.8812 67.9001 72.8558 67.2 69.9055 65.7999C66.9553 64.3498 64.7301 62.5746 63.2299 60.4744C61.7298 58.3242 60.7797 56.024 60.3797 53.5738C59.9797 51.0736 59.7796 48.7984 59.7796 46.7482V14.4953ZM122.015 14.4953H139.041C142.391 14.4953 145.167 14.9704 147.367 15.9205C149.567 16.8205 151.292 17.9706 152.542 19.3708C153.842 20.7209 154.743 22.196 155.243 23.7962C155.793 25.3963 156.068 26.8714 156.068 28.2216C156.068 29.7217 155.818 31.2718 155.318 32.872C154.818 34.4221 154.017 35.8722 152.917 37.2224C151.817 38.5725 150.392 39.6976 148.642 40.5977C146.942 41.4977 144.892 42.0228 142.491 42.1728V42.4728L143.242 42.8479C143.842 43.1479 144.342 43.5229 144.742 43.973C145.192 44.423 145.742 45.1481 146.392 46.1481C147.092 47.1482 148.017 48.5734 149.167 50.4235C150.317 52.2237 151.942 54.6489 154.042 57.6992C154.743 58.7493 155.418 59.6994 156.068 60.5494C156.718 61.3495 157.393 62.0496 158.093 62.6496C158.793 63.1997 159.543 63.6247 160.343 63.9247C161.143 64.2248 162.068 64.3748 163.118 64.3748C163.368 64.3748 163.618 64.3748 163.868 64.3748C164.118 64.3248 164.368 64.2748 164.618 64.2248V67C163.918 67.4 163.218 67.6501 162.518 67.7501C161.818 67.8501 160.918 67.9001 159.818 67.9001C158.318 67.9001 157.018 67.7001 155.918 67.3C154.868 66.9 153.917 66.3749 153.067 65.7249C152.217 65.0248 151.417 64.1998 150.667 63.2497C149.967 62.2996 149.242 61.2495 148.492 60.0994L142.566 51.3236C141.666 49.9235 140.891 48.7484 140.241 47.7983C139.591 46.8482 138.891 46.0731 138.141 45.4731C137.391 44.873 136.541 44.448 135.591 44.198C134.691 43.948 133.541 43.8229 132.141 43.8229H128.84V67H122.015V14.4953ZM128.84 17.7956V40.4476H136.566C138.566 40.4476 140.316 40.0976 141.816 39.3975C143.367 38.6975 144.667 37.7974 145.717 36.6973C146.767 35.5472 147.542 34.2971 148.042 32.947C148.592 31.5469 148.867 30.1717 148.867 28.8216C148.867 27.2215 148.567 25.7463 147.967 24.3962C147.417 23.0461 146.592 21.896 145.492 20.9459C144.392 19.9458 143.067 19.1708 141.516 18.6207C140.016 18.0707 138.316 17.7956 136.416 17.7956H128.84ZM210.28 51.5486H184.403L177.803 67H174.352L196.554 14.4953H200.305L224.757 67H217.481L210.28 51.5486ZM208.705 48.1733L196.929 22.8961H196.629L185.828 48.1733H208.705ZM283.594 14.4953H287.044V67.9001H286.669L245.04 26.8714H244.74V67H241.29V13.5953H241.665L283.294 54.6239H283.594V14.4953ZM330.068 81.2513L330.669 79.2261C330.919 79.3261 331.194 79.3761 331.494 79.3761C331.794 79.3761 332.119 79.3761 332.469 79.3761C333.169 79.3761 333.919 79.3261 334.719 79.2261C335.569 79.1261 336.344 78.9511 337.044 78.701C337.744 78.451 338.319 78.076 338.769 77.5759C339.219 77.0759 339.444 76.4008 339.444 75.5508C339.444 74.9507 339.119 74.3507 338.469 73.7506C337.819 73.1505 336.544 72.8505 334.644 72.8505C334.294 72.8505 333.819 72.8755 333.219 72.9255C332.669 72.9755 332.219 73.0505 331.869 73.1505L333.444 67.9001C328.493 67.8501 324.218 67.025 320.618 65.4249C317.017 63.8247 314.067 61.7495 311.767 59.1993C309.467 56.5991 307.766 53.6488 306.666 50.3485C305.566 47.0482 305.016 43.6729 305.016 40.2226C305.016 36.1723 305.716 32.5219 307.116 29.2717C308.517 25.9714 310.492 23.1711 313.042 20.8709C315.592 18.5207 318.642 16.7205 322.193 15.4704C325.793 14.2203 329.768 13.5953 334.119 13.5953C337.119 13.5953 339.794 13.8953 342.145 14.4953C344.495 15.0954 346.545 15.9205 348.295 16.9706C350.045 18.0207 351.495 19.2708 352.645 20.7209C353.846 22.171 354.821 23.7462 355.571 25.4463H350.02C349.67 24.3962 349.045 23.3711 348.145 22.371C347.295 21.3209 346.17 20.3959 344.77 19.5958C343.42 18.7957 341.845 18.1457 340.044 17.6456C338.294 17.1456 336.344 16.8956 334.194 16.8956C331.044 16.8956 328.118 17.4706 325.418 18.6207C322.768 19.7708 320.468 21.371 318.517 23.4211C316.567 25.4713 315.042 27.9215 313.942 30.7718C312.892 33.572 312.367 36.6723 312.367 40.0726C312.367 43.2729 312.867 46.3482 313.867 49.2984C314.917 52.2487 316.442 54.8489 318.442 57.0991C320.443 59.3493 322.943 61.1495 325.943 62.4996C328.943 63.8497 332.394 64.5248 336.294 64.5248C343.295 64.5248 349.345 62.1246 354.446 57.3241L356.696 59.3493C356.096 60.0994 355.221 60.9495 354.071 61.8995C352.92 62.7996 351.47 63.6747 349.72 64.5248C348.02 65.3249 346.02 66.0499 343.72 66.7C341.469 67.3 338.894 67.6751 335.994 67.8251L335.319 70.3003C335.619 70.2503 335.919 70.2253 336.219 70.2253C336.519 70.2253 336.819 70.2253 337.119 70.2253C338.769 70.2253 340.269 70.6753 341.619 71.5754C342.97 72.5255 343.645 73.8006 343.645 75.4007C343.645 76.5508 343.395 77.5009 342.895 78.251C342.395 79.0511 341.744 79.7011 340.944 80.2012C340.144 80.7512 339.219 81.1263 338.169 81.3263C337.169 81.5763 336.144 81.7013 335.094 81.7013C334.244 81.7013 333.369 81.6513 332.469 81.5513C331.619 81.4513 330.819 81.3513 330.068 81.2513ZM375.432 14.4953H382.257V67H375.432V14.4953ZM408.52 14.4953H442.423V18.6207H415.345V37.4474H438.597V40.8977H415.345V67H408.52V14.4953ZM478.318 67H471.492V18.6207H451.391V14.4953H498.42V18.6207H478.318V67ZM533.972 81.2513L534.572 79.2261C534.822 79.3261 535.097 79.3761 535.397 79.3761C535.697 79.3761 536.022 79.3761 536.373 79.3761C537.073 79.3761 537.823 79.3261 538.623 79.2261C539.473 79.1261 540.248 78.9511 540.948 78.701C541.648 78.451 542.223 78.076 542.673 77.5759C543.123 77.0759 543.348 76.4008 543.348 75.5508C543.348 74.9507 543.023 74.3507 542.373 73.7506C541.723 73.1505 540.448 72.8505 538.548 72.8505C538.198 72.8505 537.723 72.8755 537.123 72.9255C536.573 72.9755 536.122 73.0505 535.772 73.1505L537.348 67.9001C532.397 67.8501 528.122 67.025 524.521 65.4249C520.921 63.8247 517.971 61.7495 515.671 59.1993C513.37 56.5991 511.67 53.6488 510.57 50.3485C509.47 47.0482 508.92 43.6729 508.92 40.2226C508.92 36.1723 509.62 32.5219 511.02 29.2717C512.42 25.9714 514.396 23.1711 516.946 20.8709C519.496 18.5207 522.546 16.7205 526.097 15.4704C529.697 14.2203 533.672 13.5953 538.023 13.5953C541.023 13.5953 543.698 13.8953 546.048 14.4953C548.399 15.0954 550.449 15.9205 552.199 16.9706C553.949 18.0207 555.399 19.2708 556.549 20.7209C557.749 22.171 558.724 23.7462 559.475 25.4463H553.924C553.574 24.3962 552.949 23.3711 552.049 22.371C551.199 21.3209 550.074 20.3959 548.674 19.5958C547.323 18.7957 545.748 18.1457 543.948 17.6456C542.198 17.1456 540.248 16.8956 538.098 16.8956C534.947 16.8956 532.022 17.4706 529.322 18.6207C526.672 19.7708 524.371 21.371 522.421 23.4211C520.471 25.4713 518.946 27.9215 517.846 30.7718C516.796 33.572 516.271 36.6723 516.271 40.0726C516.271 43.2729 516.771 46.3482 517.771 49.2984C518.821 52.2487 520.346 54.8489 522.346 57.0991C524.346 59.3493 526.847 61.1495 529.847 62.4996C532.847 63.8497 536.298 64.5248 540.198 64.5248C547.198 64.5248 553.249 62.1246 558.349 57.3241L560.6 59.3493C560 60.0994 559.125 60.9495 557.974 61.8995C556.824 62.7996 555.374 63.6747 553.624 64.5248C551.924 65.3249 549.924 66.0499 547.624 66.7C545.373 67.3 542.798 67.6751 539.898 67.8251L539.223 70.3003C539.523 70.2503 539.823 70.2253 540.123 70.2253C540.423 70.2253 540.723 70.2253 541.023 70.2253C542.673 70.2253 544.173 70.6753 545.523 71.5754C546.873 72.5255 547.548 73.8006 547.548 75.4007C547.548 76.5508 547.298 77.5009 546.798 78.251C546.298 79.0511 545.648 79.7011 544.848 80.2012C544.048 80.7512 543.123 81.1263 542.073 81.3263C541.073 81.5763 540.048 81.7013 538.998 81.7013C538.148 81.7013 537.273 81.6513 536.373 81.5513C535.522 81.4513 534.722 81.3513 533.972 81.2513ZM579.336 14.4953H586.161V67H579.336V14.4953Z" fill="black"/>
<path d="M230.476 127.03V114.08H232.143V125.556H238.347V127.03H230.476ZM246.551 127.03L251.863 114.08H253.685L258.997 127.03H257.194L256.07 124.199H249.459L248.354 127.03H246.551ZM250.021 122.803H255.527L252.774 115.844L250.021 122.803ZM268.295 127.03L264.165 114.08H266.007L269.225 124.897L272.443 114.08H274.227L277.445 124.897L280.682 114.08H282.505L278.375 127.03H276.572L273.335 116.27L270.097 127.03H268.295ZM302.959 127.03V114.08H311.799V115.514H304.626V119.663H311.217V121.059H304.626V127.03H302.959ZM321.046 127.03V114.08H322.714V127.03H321.046ZM332.697 127.03V114.08H337.737C339.263 114.08 340.432 114.39 341.246 115.01C342.061 115.63 342.468 116.587 342.468 117.879C342.468 118.991 342.171 119.844 341.576 120.438C340.994 121.02 340.154 121.395 339.056 121.563L343.127 127.03H341.169L337.292 121.679H334.364V127.03H332.697ZM334.364 120.264H337.408C338.532 120.264 339.372 120.089 339.928 119.74C340.497 119.378 340.781 118.765 340.781 117.899C340.781 117.02 340.516 116.406 339.986 116.057C339.456 115.695 338.597 115.514 337.408 115.514H334.364V120.264ZM351.864 127.03V114.08H354.481L359.017 124.975L363.554 114.08H366.171V127.03H364.504V115.786L359.754 127.03H358.281L353.531 115.786V127.03H351.864Z" fill="black"/>
</svg>
