<svg width="594" height="132" viewBox="0 0 594 132" fill="none" xmlns="http://www.w3.org/2000/svg">
<path d="M15.1044 11.4953H58.3082V22.2963L57.4082 22.1463C57.4082 18.896 55.858 16.5708 52.7578 15.1707C49.6575 13.7205 45.2071 12.9955 39.4066 12.9955V47.0485C39.4066 50.6988 39.4816 53.5991 39.6316 55.7493C39.7816 57.8995 40.1316 59.4996 40.6817 60.5497C41.2317 61.5998 42.1068 62.2998 43.3069 62.6499C44.507 62.9499 46.1322 63.0999 48.1823 63.0999L48.3324 64H25.2303L25.3803 63.0999C27.4805 63.0999 29.1057 62.9499 30.2558 62.6499C31.4559 62.2998 32.3309 61.5998 32.881 60.5497C33.431 59.4996 33.7811 57.8995 33.9311 55.7493C34.0811 53.5991 34.1561 50.6988 34.1561 47.0485V12.9955C28.4056 12.9955 23.9302 13.7205 20.7299 15.1707C17.5796 16.5708 16.0045 18.896 16.0045 22.1463L15.1044 22.2963V11.4953ZM122.697 11.4953L122.547 12.3954C120.847 12.3954 119.447 12.5704 118.347 12.9205C117.297 13.2205 116.472 13.9206 115.872 15.0207C115.322 16.0707 114.922 17.6709 114.672 19.8211C114.472 21.9713 114.372 24.8715 114.372 28.5219V43.2232C114.372 47.5735 113.747 51.1739 112.496 54.0241C111.296 56.8244 109.696 58.9996 107.696 60.5497C105.746 62.0998 103.621 63.1999 101.32 63.85C99.0703 64.45 96.8951 64.7501 94.7949 64.7501C89.8444 64.7501 85.8691 63.875 82.8688 62.1248C79.9186 60.3747 77.7684 57.9495 76.4182 54.8492C75.1181 51.6989 74.4681 48.0736 74.4681 43.9732V28.4468C74.4681 24.7965 74.3931 21.8963 74.2431 19.7461C74.093 17.5959 73.768 15.9957 73.268 14.9456C72.8179 13.8956 72.0929 13.2205 71.0928 12.9205C70.1427 12.5704 68.8176 12.3954 67.1174 12.3954L66.9674 11.4953H87.1442L86.9942 12.3954C85.294 12.3954 83.9439 12.5704 82.9438 12.9205C81.9937 13.2205 81.2687 13.8956 80.7686 14.9456C80.3186 15.9957 80.0186 17.5959 79.8686 19.7461C79.7685 21.8963 79.7185 24.7965 79.7185 28.4468V44.3483C79.7185 48.8487 80.4186 52.424 81.8187 55.0742C83.2189 57.7244 85.119 59.6496 87.5192 60.8497C89.9694 61.9998 92.7197 62.5749 95.77 62.5749C98.6202 62.5749 101.32 61.9498 103.871 60.6997C106.421 59.4496 108.496 57.4244 110.096 54.6242C111.696 51.7739 112.496 48.0236 112.496 43.3732V28.5219C112.496 24.8715 112.371 21.9713 112.121 19.8211C111.921 17.6709 111.521 16.0707 110.921 15.0207C110.371 13.9206 109.571 13.2205 108.521 12.9205C107.471 12.5704 106.096 12.3954 104.396 12.3954L104.246 11.4953H122.697ZM181.727 63.0999L181.877 64H171.451C170.101 64 168.851 63.3999 167.701 62.1998C166.551 60.9497 165.426 59.3496 164.325 57.3994C163.275 55.3992 162.15 53.2991 160.95 51.0989C159.8 48.8987 158.5 46.8235 157.05 44.8733C155.65 42.8731 154.025 41.223 152.174 39.9229C150.374 38.5727 148.249 37.8477 145.799 37.7477V47.0485C145.799 50.6988 145.874 53.5991 146.024 55.7493C146.174 57.8995 146.499 59.4996 146.999 60.5497C147.499 61.5998 148.224 62.2998 149.174 62.6499C150.174 62.9499 151.524 63.0999 153.224 63.0999L153.374 64H133.273L133.423 63.0999C135.123 63.0999 136.448 62.9499 137.398 62.6499C138.398 62.2998 139.123 61.5998 139.573 60.5497C140.023 59.4996 140.298 57.8995 140.398 55.7493C140.548 53.5991 140.623 50.6988 140.623 47.0485V28.0718C140.623 24.4215 140.548 21.5462 140.398 19.446C140.298 17.3459 140.023 15.7957 139.573 14.7956C139.123 13.7955 138.398 13.1455 137.398 12.8455C136.448 12.5454 135.123 12.3954 133.423 12.3954L133.273 11.4953H150.674C152.824 11.4953 155 11.6704 157.2 12.0204C159.4 12.3204 161.425 12.9205 163.275 13.8205C165.176 14.7206 166.701 16.0207 167.851 17.7209C169.001 19.371 169.576 21.5462 169.576 24.2465C169.576 26.7967 168.951 29.0469 167.701 30.9971C166.451 32.8972 164.826 34.4474 162.825 35.6475C160.825 36.7976 158.675 37.4976 156.375 37.7477C158.325 38.8978 160 40.3229 161.4 42.023C162.8 43.6732 164.05 45.4484 165.151 47.3485C166.251 49.2487 167.326 51.1239 168.376 52.974C169.426 54.8242 170.551 56.5243 171.751 58.0745C172.951 59.5746 174.351 60.7997 175.951 61.7498C177.552 62.6499 179.477 63.0999 181.727 63.0999ZM145.799 13.2205V36.2475H150.524C152.874 36.2475 155.05 35.8475 157.05 35.0474C159.05 34.2474 160.65 32.9972 161.85 31.2971C163.1 29.5469 163.725 27.2467 163.725 24.3965C163.725 20.6462 162.575 17.8459 160.275 15.9957C158.025 14.1456 154.825 13.2205 150.674 13.2205H145.799ZM221.81 60.6997C221.81 59.5496 221.46 57.9495 220.76 55.8993C220.11 53.8491 219.135 51.0739 217.835 47.5735H194.957C193.907 50.6738 193.107 53.224 192.557 55.2242C192.007 57.2244 191.732 58.7995 191.732 59.9496C191.732 61.3998 192.207 62.2998 193.157 62.6499C194.107 62.9499 195.533 63.0999 197.433 63.0999L197.583 64H180.706L180.856 63.0999C182.156 63.0999 183.281 62.9499 184.232 62.6499C185.232 62.3499 186.157 61.6998 187.007 60.6997C187.857 59.6996 188.757 58.1495 189.707 56.0493C190.657 53.9491 191.757 51.0739 193.007 47.4235L199.683 28.1468C200.683 25.2966 201.433 23.0714 201.933 21.4712C202.433 19.8211 202.758 18.546 202.908 17.6459C203.108 16.7458 203.208 15.9707 203.208 15.3207C203.208 14.1706 202.858 13.3955 202.158 12.9955C201.458 12.5454 200.108 12.3204 198.108 12.3204L197.958 11.4953H210.334L223.61 47.4235C224.96 51.0739 226.06 53.9491 226.91 56.0493C227.81 58.1495 228.635 59.6996 229.386 60.6997C230.136 61.6998 230.936 62.3499 231.786 62.6499C232.636 62.9499 233.736 63.0999 235.086 63.0999L235.236 64H216.484L216.634 63.0999C218.385 63.0999 219.685 62.9749 220.535 62.7249C221.385 62.4249 221.81 61.7498 221.81 60.6997ZM206.133 15.5457L195.558 45.7734H217.234L206.133 15.5457ZM278.31 11.4953H296.912L296.762 12.3204C295.062 12.3204 293.662 12.4954 292.562 12.8455C291.512 13.1455 290.686 13.8205 290.086 14.8706C289.536 15.9207 289.136 17.5209 288.886 19.6711C288.686 21.8213 288.586 24.7215 288.586 28.3718V64.375H286.261L250.933 19.7461V46.8985C250.933 50.5488 251.033 53.4741 251.233 55.6743C251.483 57.8245 251.883 59.4496 252.433 60.5497C253.033 61.5998 253.858 62.2998 254.908 62.6499C255.958 62.9499 257.334 63.0999 259.034 63.0999L259.184 64H240.732L240.882 63.0999C242.582 63.0999 243.957 62.9499 245.007 62.6499C246.108 62.2998 246.933 61.5998 247.483 60.5497C248.083 59.4496 248.483 57.8245 248.683 55.6743C248.933 53.4741 249.058 50.5488 249.058 46.8985V28.3718C249.058 24.7215 248.933 21.8213 248.683 19.6711C248.483 17.5209 248.083 15.9207 247.483 14.8706C246.933 13.8205 246.108 13.1455 245.007 12.8455C243.957 12.4954 242.582 12.3204 240.882 12.3204L240.732 11.4953H250.933L286.711 56.1243V28.3718C286.711 24.7215 286.586 21.8213 286.336 19.6711C286.136 17.5209 285.736 15.9207 285.136 14.8706C284.536 13.8205 283.686 13.1455 282.586 12.8455C281.536 12.4954 280.161 12.3204 278.46 12.3204L278.31 11.4953ZM356.253 55.9743V58.2245C353.803 60.0747 350.953 61.6248 347.703 62.8749C344.502 64.125 340.477 64.7501 335.627 64.7501C331.526 64.7501 327.826 64.05 324.526 62.6499C321.225 61.2498 318.4 59.3246 316.05 56.8744C313.75 54.4242 311.974 51.5739 310.724 48.3236C309.474 45.0233 308.849 41.498 308.849 37.7477C308.849 32.7472 309.874 28.2218 311.924 24.1715C314.025 20.1211 317.025 16.8958 320.925 14.4956C324.826 12.0454 329.526 10.8203 335.027 10.8203C337.777 10.8203 340.452 11.0953 343.052 11.6454C345.702 12.1954 348.028 12.8205 350.028 13.5205C352.078 14.2206 353.578 14.8456 354.528 15.3957V24.9965L353.703 24.8465C352.403 20.1461 350.153 16.9208 346.953 15.1707C343.752 13.4205 339.777 12.5454 335.027 12.5454C330.626 12.5454 326.976 13.6455 324.076 15.8457C321.175 17.9959 319 20.9712 317.55 24.7715C316.1 28.5719 315.375 32.8972 315.375 37.7477C315.375 42.4981 316.15 46.7485 317.7 50.4988C319.25 54.2491 321.525 57.1994 324.526 59.3496C327.576 61.4998 331.276 62.5749 335.627 62.5749C339.027 62.5749 341.952 62.2748 344.402 61.6748C346.853 61.0747 349.028 60.2747 350.928 59.2746C352.828 58.2745 354.603 57.1744 356.253 55.9743ZM329.401 70.2256L331.651 64H334.051L332.326 68.8754C334.677 68.8754 336.702 69.4005 338.402 70.4506C340.152 71.5507 341.027 73.4258 341.027 76.0761C341.027 77.6262 340.602 78.9263 339.752 79.9764C338.902 81.0765 337.802 81.9016 336.452 82.4516C335.152 83.0517 333.776 83.3517 332.326 83.3517C331.026 83.3517 329.776 83.1017 328.576 82.6017C327.376 82.1016 326.376 81.3765 325.576 80.4265L326.926 78.9263C327.576 79.5764 328.301 80.0514 329.101 80.3515C329.951 80.6515 330.701 80.8015 331.351 80.8015C333.101 80.8015 334.401 80.3014 335.252 79.3014C336.102 78.3513 336.527 77.2762 336.527 76.0761C336.527 74.776 336.027 73.5508 335.027 72.4007C334.076 71.3006 332.201 70.5756 329.401 70.2256ZM380.249 28.4468V47.0485C380.249 50.6988 380.324 53.5991 380.474 55.7493C380.624 57.8995 380.924 59.4996 381.374 60.5497C381.874 61.5998 382.599 62.2998 383.549 62.6499C384.549 62.9499 385.9 63.0999 387.6 63.0999L387.75 64H367.498L367.648 63.0999C369.348 63.0999 370.698 62.9499 371.698 62.6499C372.698 62.2998 373.424 61.5998 373.874 60.5497C374.374 59.4996 374.674 57.8995 374.774 55.7493C374.924 53.5991 374.999 50.6988 374.999 47.0485V28.4468C374.999 24.7965 374.924 21.8963 374.774 19.7461C374.674 17.5959 374.374 15.9957 373.874 14.9456C373.424 13.8455 372.698 13.1455 371.698 12.8455C370.698 12.4954 369.348 12.3204 367.648 12.3204L367.498 11.4953H387.75L387.6 12.3204C385.9 12.3204 384.549 12.4954 383.549 12.8455C382.599 13.1455 381.874 13.8455 381.374 14.9456C380.924 15.9957 380.624 17.5959 380.474 19.7461C380.324 21.8963 380.249 24.7965 380.249 28.4468ZM373.349 4.51972C373.349 3.36962 373.774 2.36953 374.624 1.51945C375.474 0.66938 376.474 0.244343 377.624 0.244343C378.774 0.244343 379.774 0.66938 380.624 1.51945C381.474 2.36953 381.899 3.36962 381.899 4.51972C381.899 5.66982 381.474 6.66991 380.624 7.51999C379.774 8.37006 378.774 8.7951 377.624 8.7951C376.474 8.7951 375.474 8.37006 374.624 7.51999C373.774 6.66991 373.349 5.66982 373.349 4.51972ZM400.51 11.4953H435.538V22.2963L434.713 22.1463C434.713 18.646 432.838 16.2958 429.087 15.0957C425.337 13.8455 420.086 13.2205 413.336 13.2205V36.8476C416.186 36.7476 418.436 36.5726 420.086 36.3225C421.787 36.0225 423.037 35.5725 423.837 34.9724C424.637 34.3724 425.137 33.5723 425.337 32.5722C425.587 31.5221 425.712 30.222 425.712 28.6719L426.612 28.5219V46.7485L425.712 46.5985C425.712 44.9983 425.587 43.6982 425.337 42.6981C425.137 41.648 424.637 40.8479 423.837 40.2979C423.037 39.6978 421.787 39.2728 420.086 39.0228C418.436 38.7228 416.186 38.5477 413.336 38.4977V47.0485C413.336 50.6988 413.411 53.5991 413.561 55.7493C413.711 57.8995 414.086 59.4996 414.686 60.5497C415.336 61.5998 416.286 62.2998 417.536 62.6499C418.836 62.9499 420.611 63.0999 422.862 63.0999L423.012 64H400.51L400.66 63.0999C402.36 63.0999 403.685 62.9499 404.635 62.6499C405.635 62.2998 406.36 61.5998 406.81 60.5497C407.31 59.4996 407.635 57.8995 407.785 55.7493C407.935 53.5991 408.01 50.6988 408.01 47.0485V28.4468C408.01 24.7965 407.935 21.8963 407.785 19.7461C407.635 17.5959 407.31 15.9957 406.81 14.9456C406.36 13.8455 405.635 13.1455 404.635 12.8455C403.685 12.4954 402.36 12.3204 400.66 12.3204L400.51 11.4953ZM443.568 11.4953H486.772V22.2963L485.872 22.1463C485.872 18.896 484.322 16.5708 481.222 15.1707C478.121 13.7205 473.671 12.9955 467.87 12.9955V47.0485C467.87 50.6988 467.945 53.5991 468.095 55.7493C468.245 57.8995 468.595 59.4996 469.145 60.5497C469.696 61.5998 470.571 62.2998 471.771 62.6499C472.971 62.9499 474.596 63.0999 476.646 63.0999L476.796 64H453.694L453.844 63.0999C455.944 63.0999 457.569 62.9499 458.72 62.6499C459.92 62.2998 460.795 61.5998 461.345 60.5497C461.895 59.4996 462.245 57.8995 462.395 55.7493C462.545 53.5991 462.62 50.6988 462.62 47.0485V12.9955C456.869 12.9955 452.394 13.7205 449.194 15.1707C446.043 16.5708 444.468 18.896 444.468 22.1463L443.568 22.2963V11.4953ZM544.336 55.9743V58.2245C541.885 60.0747 539.035 61.6248 535.785 62.8749C532.584 64.125 528.559 64.7501 523.709 64.7501C519.608 64.7501 515.908 64.05 512.608 62.6499C509.307 61.2498 506.482 59.3246 504.132 56.8744C501.832 54.4242 500.057 51.5739 498.806 48.3236C497.556 45.0233 496.931 41.498 496.931 37.7477C496.931 32.7472 497.956 28.2218 500.007 24.1715C502.107 20.1211 505.107 16.8958 509.007 14.4956C512.908 12.0454 517.608 10.8203 523.109 10.8203C525.859 10.8203 528.534 11.0953 531.134 11.6454C533.785 12.1954 536.11 12.8205 538.11 13.5205C540.16 14.2206 541.66 14.8456 542.61 15.3957V24.9965L541.785 24.8465C540.485 20.1461 538.235 16.9208 535.035 15.1707C531.834 13.4205 527.859 12.5454 523.109 12.5454C518.708 12.5454 515.058 13.6455 512.158 15.8457C509.257 17.9959 507.082 20.9712 505.632 24.7715C504.182 28.5719 503.457 32.8972 503.457 37.7477C503.457 42.4981 504.232 46.7485 505.782 50.4988C507.332 54.2491 509.607 57.1994 512.608 59.3496C515.658 61.4998 519.358 62.5749 523.709 62.5749C527.109 62.5749 530.034 62.2748 532.484 61.6748C534.935 61.0747 537.11 60.2747 539.01 59.2746C540.91 58.2745 542.685 57.1744 544.336 55.9743ZM517.483 70.2256L519.733 64H522.134L520.408 68.8754C522.759 68.8754 524.784 69.4005 526.484 70.4506C528.234 71.5507 529.109 73.4258 529.109 76.0761C529.109 77.6262 528.684 78.9263 527.834 79.9764C526.984 81.0765 525.884 81.9016 524.534 82.4516C523.234 83.0517 521.859 83.3517 520.408 83.3517C519.108 83.3517 517.858 83.1017 516.658 82.6017C515.458 82.1016 514.458 81.3765 513.658 80.4265L515.008 78.9263C515.658 79.5764 516.383 80.0514 517.183 80.3515C518.033 80.6515 518.783 80.8015 519.433 80.8015C521.183 80.8015 522.484 80.3014 523.334 79.3014C524.184 78.3513 524.609 77.2762 524.609 76.0761C524.609 74.776 524.109 73.5508 523.109 72.4007C522.159 71.3006 520.283 70.5756 517.483 70.2256ZM568.331 28.4468V47.0485C568.331 50.6988 568.406 53.5991 568.556 55.7493C568.706 57.8995 569.006 59.4996 569.456 60.5497C569.956 61.5998 570.681 62.2998 571.632 62.6499C572.632 62.9499 573.982 63.0999 575.682 63.0999L575.832 64H555.58L555.73 63.0999C557.43 63.0999 558.78 62.9499 559.78 62.6499C560.781 62.2998 561.506 61.5998 561.956 60.5497C562.456 59.4996 562.756 57.8995 562.856 55.7493C563.006 53.5991 563.081 50.6988 563.081 47.0485V28.4468C563.081 24.7965 563.006 21.8963 562.856 19.7461C562.756 17.5959 562.456 15.9957 561.956 14.9456C561.506 13.8455 560.781 13.1455 559.78 12.8455C558.78 12.4954 557.43 12.3204 555.73 12.3204L555.58 11.4953H575.832L575.682 12.3204C573.982 12.3204 572.632 12.4954 571.632 12.8455C570.681 13.1455 569.956 13.8455 569.456 14.9456C569.006 15.9957 568.706 17.5959 568.556 19.7461C568.406 21.8963 568.331 24.7965 568.331 28.4468ZM561.431 4.51972C561.431 3.36962 561.856 2.36953 562.706 1.51945C563.556 0.66938 564.556 0.244343 565.706 0.244343C566.856 0.244343 567.856 0.66938 568.706 1.51945C569.556 2.36953 569.981 3.36962 569.981 4.51972C569.981 5.66982 569.556 6.66991 568.706 7.51999C567.856 8.37006 566.856 8.7951 565.706 8.7951C564.556 8.7951 563.556 8.37006 562.706 7.51999C561.856 6.66991 561.431 5.66982 561.431 4.51972Z" fill="black"/>
<path d="M192.736 128.03H187.832V127.467C188.349 127.261 188.879 127.105 189.421 127.002V115.506C188.814 115.415 188.284 115.254 187.832 115.021V114.459H192.736V115.021C192.517 115.138 192.284 115.235 192.039 115.312C191.793 115.39 191.541 115.454 191.282 115.506V120.566H197.37V115.506C197.098 115.441 196.84 115.37 196.594 115.293C196.362 115.215 196.135 115.125 195.916 115.021V114.459H200.821V115.021C200.588 115.151 200.329 115.254 200.045 115.331C199.774 115.396 199.502 115.454 199.231 115.506V127.002C199.528 127.054 199.812 127.118 200.084 127.196C200.355 127.273 200.601 127.364 200.821 127.467V128.03H195.916V127.467C196.381 127.261 196.866 127.105 197.37 127.002V121.574H191.282V127.002C191.541 127.054 191.793 127.118 192.039 127.196C192.284 127.273 192.517 127.364 192.736 127.467V128.03ZM208.353 114.459H213.277V115.021C213.031 115.125 212.786 115.215 212.54 115.293C212.295 115.37 212.049 115.441 211.804 115.506V123.435C211.804 124.12 211.875 124.695 212.017 125.16C212.172 125.613 212.392 125.981 212.676 126.265C212.96 126.537 213.309 126.737 213.723 126.866C214.149 126.983 214.628 127.041 215.157 127.041C216.179 127.041 216.973 126.763 217.542 126.207C218.111 125.639 218.395 124.708 218.395 123.416V115.68C218.098 115.577 217.82 115.474 217.561 115.37C217.303 115.254 217.07 115.138 216.863 115.021V114.459H220.993V115.021C220.747 115.163 220.495 115.293 220.237 115.409C219.991 115.525 219.739 115.616 219.481 115.68V123.454C219.481 124.282 219.371 124.992 219.151 125.587C218.931 126.181 218.621 126.672 218.221 127.06C217.833 127.448 217.355 127.739 216.786 127.933C216.23 128.114 215.61 128.204 214.925 128.204C213.309 128.204 212.075 127.842 211.222 127.118C210.369 126.382 209.943 125.257 209.943 123.745V115.506C209.413 115.428 208.883 115.267 208.353 115.021V114.459ZM235.375 114.459H239.659V115.021C239.401 115.138 239.149 115.235 238.903 115.312C238.658 115.39 238.419 115.454 238.186 115.506L234.289 120.663C234.613 121.089 234.981 121.567 235.394 122.097C235.821 122.627 236.26 123.176 236.713 123.745C237.178 124.301 237.65 124.87 238.128 125.451C238.619 126.02 239.097 126.563 239.562 127.08L240.493 127.545V128.03H238.07L237.411 127.564C236.648 126.672 235.886 125.71 235.123 124.676C234.373 123.642 233.643 122.595 232.932 121.535H231.982V127.002C232.577 127.105 233.062 127.261 233.436 127.467V128.03H228.532V127.467C229.049 127.261 229.579 127.105 230.121 127.002V115.506C229.54 115.428 229.01 115.267 228.532 115.021V114.459H233.436V115.021C233.23 115.112 233.003 115.202 232.758 115.293C232.512 115.37 232.254 115.441 231.982 115.506V120.876L233.146 120.605L236.771 115.506C236.512 115.441 236.267 115.37 236.034 115.293C235.802 115.215 235.582 115.125 235.375 115.021V114.459ZM247.481 114.459H252.406V115.021C252.16 115.125 251.915 115.215 251.669 115.293C251.423 115.37 251.178 115.441 250.932 115.506V123.435C250.932 124.12 251.003 124.695 251.146 125.16C251.301 125.613 251.52 125.981 251.805 126.265C252.089 126.537 252.438 126.737 252.852 126.866C253.278 126.983 253.756 127.041 254.286 127.041C255.307 127.041 256.102 126.763 256.671 126.207C257.239 125.639 257.524 124.708 257.524 123.416V115.68C257.226 115.577 256.948 115.474 256.69 115.37C256.432 115.254 256.199 115.138 255.992 115.021V114.459H260.121V115.021C259.876 115.163 259.624 115.293 259.365 115.409C259.12 115.525 258.868 115.616 258.609 115.68V123.454C258.609 124.282 258.499 124.992 258.28 125.587C258.06 126.181 257.75 126.672 257.349 127.06C256.961 127.448 256.483 127.739 255.915 127.933C255.359 128.114 254.738 128.204 254.053 128.204C252.438 128.204 251.204 127.842 250.351 127.118C249.498 126.382 249.071 125.257 249.071 123.745V115.506C248.541 115.428 248.011 115.267 247.481 115.021V114.459ZM274.504 114.459H278.788V115.021C278.53 115.138 278.278 115.235 278.032 115.312C277.786 115.39 277.547 115.454 277.315 115.506L273.418 120.663C273.741 121.089 274.109 121.567 274.523 122.097C274.95 122.627 275.389 123.176 275.841 123.745C276.307 124.301 276.778 124.87 277.257 125.451C277.748 126.02 278.226 126.563 278.691 127.08L279.622 127.545V128.03H277.198L276.539 127.564C275.777 126.672 275.014 125.71 274.252 124.676C273.502 123.642 272.772 122.595 272.061 121.535H271.111V127.002C271.706 127.105 272.19 127.261 272.565 127.467V128.03H267.66V127.467C268.177 127.261 268.707 127.105 269.25 127.002V115.506C268.668 115.428 268.138 115.267 267.66 115.021V114.459H272.565V115.021C272.358 115.112 272.132 115.202 271.886 115.293C271.641 115.37 271.382 115.441 271.111 115.506V120.876L272.274 120.605L275.899 115.506C275.641 115.441 275.395 115.37 275.163 115.293C274.93 115.215 274.71 115.125 274.504 115.021V114.459ZM298.478 128.03V127.467C298.995 127.222 299.525 127.067 300.067 127.002V115.506C299.809 115.454 299.544 115.39 299.273 115.312C299.001 115.222 298.736 115.125 298.478 115.021V114.459H300.533C300.778 114.459 301.011 114.453 301.231 114.44C301.463 114.427 301.702 114.414 301.948 114.401C302.193 114.388 302.458 114.375 302.743 114.362C303.027 114.349 303.35 114.343 303.712 114.343C304.229 114.343 304.752 114.388 305.282 114.478C305.825 114.556 306.31 114.711 306.736 114.944C307.176 115.176 307.531 115.506 307.803 115.932C308.074 116.346 308.21 116.889 308.21 117.561C308.21 117.897 308.158 118.233 308.055 118.569C307.951 118.905 307.79 119.222 307.57 119.519C307.363 119.803 307.098 120.055 306.775 120.275C306.452 120.495 306.071 120.656 305.631 120.76V120.837C306.019 120.902 306.4 121.012 306.775 121.167C307.163 121.322 307.505 121.535 307.803 121.807C308.1 122.065 308.339 122.388 308.52 122.776C308.714 123.164 308.811 123.629 308.811 124.172C308.811 124.87 308.656 125.471 308.345 125.975C308.035 126.479 307.628 126.892 307.124 127.215C306.633 127.538 306.071 127.778 305.437 127.933C304.804 128.075 304.164 128.146 303.518 128.146C303.066 128.146 302.555 128.126 301.987 128.088C301.418 128.049 300.869 128.03 300.339 128.03H298.478ZM303.654 127.138C304.119 127.138 304.552 127.067 304.953 126.925C305.366 126.782 305.715 126.588 306 126.343C306.297 126.084 306.53 125.781 306.698 125.432C306.866 125.07 306.95 124.682 306.95 124.269C306.95 123.752 306.846 123.325 306.639 122.989C306.446 122.64 306.174 122.369 305.825 122.175C305.489 121.968 305.095 121.826 304.643 121.748C304.203 121.671 303.744 121.632 303.266 121.632H301.812V126.983C301.993 127.034 302.206 127.073 302.452 127.099C302.71 127.125 303.111 127.138 303.654 127.138ZM302.782 120.624C303.001 120.624 303.26 120.617 303.557 120.605C303.867 120.579 304.119 120.553 304.313 120.527C304.908 120.32 305.392 119.991 305.767 119.538C306.155 119.073 306.349 118.53 306.349 117.91C306.349 117.057 306.09 116.417 305.573 115.991C305.069 115.564 304.391 115.351 303.538 115.351C303.137 115.351 302.794 115.357 302.51 115.37C302.226 115.383 301.993 115.403 301.812 115.428V120.624H302.782ZM316.822 114.459H321.746V115.021C321.5 115.125 321.255 115.215 321.009 115.293C320.764 115.37 320.518 115.441 320.273 115.506V123.435C320.273 124.12 320.344 124.695 320.486 125.16C320.641 125.613 320.861 125.981 321.145 126.265C321.429 126.537 321.778 126.737 322.192 126.866C322.618 126.983 323.097 127.041 323.626 127.041C324.647 127.041 325.442 126.763 326.011 126.207C326.58 125.639 326.864 124.708 326.864 123.416V115.68C326.567 115.577 326.289 115.474 326.03 115.37C325.772 115.254 325.539 115.138 325.332 115.021V114.459H329.462V115.021C329.216 115.163 328.964 115.293 328.706 115.409C328.46 115.525 328.208 115.616 327.95 115.68V123.454C327.95 124.282 327.84 124.992 327.62 125.587C327.4 126.181 327.09 126.672 326.689 127.06C326.302 127.448 325.824 127.739 325.255 127.933C324.699 128.114 324.079 128.204 323.394 128.204C321.778 128.204 320.544 127.842 319.691 127.118C318.838 126.382 318.411 125.257 318.411 123.745V115.506C317.882 115.428 317.352 115.267 316.822 115.021V114.459ZM320.292 112.734C320.292 112.424 320.395 112.191 320.602 112.036C320.809 111.881 321.074 111.803 321.397 111.803C321.707 111.803 321.966 111.881 322.172 112.036C322.379 112.191 322.483 112.424 322.483 112.734C322.483 113.031 322.379 113.257 322.172 113.412C321.966 113.567 321.707 113.645 321.397 113.645C321.074 113.645 320.809 113.567 320.602 113.412C320.395 113.257 320.292 113.031 320.292 112.734ZM324.615 112.734C324.615 112.424 324.718 112.191 324.925 112.036C325.132 111.881 325.391 111.803 325.701 111.803C326.024 111.803 326.289 111.881 326.496 112.036C326.702 112.191 326.806 112.424 326.806 112.734C326.806 113.031 326.702 113.257 326.496 113.412C326.289 113.567 326.024 113.645 325.701 113.645C325.391 113.645 325.132 113.567 324.925 113.412C324.718 113.257 324.615 113.031 324.615 112.734ZM340.451 127.002C340.749 127.067 341.033 127.138 341.304 127.215C341.576 127.28 341.841 127.364 342.099 127.467V128.03H337.001V127.467C337.285 127.338 337.556 127.241 337.815 127.177C338.073 127.112 338.332 127.054 338.59 127.002V115.506C338.254 115.441 337.957 115.37 337.698 115.293C337.44 115.202 337.207 115.112 337.001 115.021V114.459H338.707C339.224 114.459 339.786 114.433 340.393 114.382C341.014 114.33 341.615 114.304 342.196 114.304C342.829 114.304 343.417 114.375 343.96 114.517C344.516 114.659 344.994 114.886 345.395 115.196C345.795 115.506 346.106 115.9 346.325 116.378C346.558 116.857 346.674 117.432 346.674 118.104C346.674 119.047 346.422 119.829 345.918 120.449C345.427 121.07 344.755 121.516 343.902 121.787C344.458 122.666 345.039 123.538 345.647 124.404C346.254 125.27 346.888 126.13 347.547 126.983L348.594 127.545V128.03H346.248L345.511 127.487C345.149 127.034 344.82 126.595 344.522 126.168C344.225 125.729 343.947 125.29 343.689 124.85C343.43 124.398 343.185 123.945 342.952 123.493C342.732 123.028 342.506 122.537 342.274 122.02H340.451V127.002ZM341.77 115.312C341.459 115.312 341.201 115.319 340.994 115.331C340.8 115.344 340.619 115.37 340.451 115.409V121.206H341.847C342.739 121.206 343.443 120.921 343.96 120.353C344.49 119.784 344.755 119.034 344.755 118.104C344.755 117.147 344.477 116.443 343.921 115.991C343.366 115.538 342.648 115.312 341.77 115.312ZM355.989 121.244C355.989 120.236 356.125 119.306 356.396 118.453C356.68 117.587 357.081 116.844 357.598 116.223C358.128 115.59 358.774 115.099 359.537 114.75C360.299 114.401 361.165 114.226 362.134 114.226C363.104 114.226 363.97 114.401 364.732 114.75C365.495 115.099 366.134 115.59 366.651 116.223C367.181 116.844 367.582 117.587 367.853 118.453C368.138 119.306 368.28 120.236 368.28 121.244C368.28 122.252 368.138 123.189 367.853 124.055C367.582 124.908 367.181 125.651 366.651 126.285C366.134 126.905 365.495 127.39 364.732 127.739C363.97 128.088 363.104 128.262 362.134 128.262C361.165 128.262 360.299 128.088 359.537 127.739C358.774 127.39 358.128 126.905 357.598 126.285C357.081 125.651 356.68 124.908 356.396 124.055C356.125 123.189 355.989 122.252 355.989 121.244ZM358.063 121.244C358.063 122.071 358.147 122.853 358.315 123.59C358.496 124.314 358.761 124.947 359.11 125.49C359.459 126.033 359.898 126.466 360.428 126.789C360.958 127.099 361.585 127.254 362.309 127.254C362.968 127.254 363.543 127.099 364.034 126.789C364.525 126.466 364.926 126.033 365.236 125.49C365.559 124.947 365.798 124.314 365.953 123.59C366.121 122.853 366.205 122.071 366.205 121.244C366.205 120.417 366.121 119.642 365.953 118.918C365.785 118.181 365.527 117.542 365.178 116.999C364.829 116.456 364.39 116.029 363.86 115.719C363.33 115.396 362.703 115.235 361.979 115.235C361.268 115.235 360.661 115.396 360.157 115.719C359.666 116.029 359.265 116.456 358.955 116.999C358.645 117.542 358.419 118.181 358.276 118.918C358.134 119.642 358.063 120.417 358.063 121.244ZM379.005 126.692C379.16 126.847 379.36 126.983 379.606 127.099C379.852 127.202 380.22 127.254 380.711 127.254C381.125 127.254 381.512 127.202 381.874 127.099C382.236 126.983 382.546 126.821 382.805 126.614C383.076 126.395 383.289 126.136 383.444 125.839C383.6 125.529 383.677 125.18 383.677 124.792C383.677 124.275 383.516 123.842 383.192 123.493C382.882 123.144 382.488 122.834 382.01 122.563C381.545 122.291 381.034 122.026 380.478 121.768C379.923 121.509 379.406 121.206 378.927 120.857C378.462 120.495 378.068 120.068 377.745 119.577C377.435 119.073 377.28 118.446 377.28 117.697C377.28 117.154 377.377 116.669 377.57 116.243C377.764 115.816 378.036 115.454 378.385 115.157C378.747 114.86 379.173 114.634 379.664 114.478C380.155 114.31 380.705 114.226 381.312 114.226C382.1 114.226 382.818 114.291 383.464 114.42C384.123 114.537 384.64 114.685 385.015 114.866C385.015 115.086 384.995 115.344 384.957 115.642C384.931 115.926 384.892 116.223 384.84 116.533C384.802 116.844 384.756 117.147 384.705 117.445C384.653 117.729 384.601 117.981 384.549 118.201H384.045L383.27 115.545C383.037 115.441 382.74 115.364 382.378 115.312C382.029 115.26 381.654 115.235 381.254 115.235C380.595 115.235 380.065 115.422 379.664 115.797C379.263 116.159 379.063 116.669 379.063 117.328C379.063 117.858 379.218 118.304 379.528 118.666C379.852 119.028 380.252 119.351 380.73 119.635C381.209 119.92 381.719 120.197 382.262 120.469C382.818 120.727 383.335 121.031 383.813 121.38C384.291 121.729 384.685 122.143 384.995 122.621C385.318 123.099 385.48 123.693 385.48 124.404C385.48 124.986 385.37 125.516 385.15 125.994C384.944 126.472 384.64 126.879 384.239 127.215C383.839 127.551 383.348 127.81 382.766 127.991C382.184 128.172 381.525 128.262 380.789 128.262C379.974 128.262 379.244 128.165 378.598 127.971C377.952 127.778 377.493 127.571 377.221 127.351C377.234 127.131 377.254 126.866 377.28 126.556C377.318 126.246 377.357 125.929 377.396 125.606C377.448 125.27 377.499 124.947 377.551 124.637C377.603 124.327 377.654 124.062 377.706 123.842H378.21L379.005 126.692ZM393.47 114.459H398.394V115.021C398.148 115.125 397.903 115.215 397.657 115.293C397.412 115.37 397.166 115.441 396.921 115.506V123.435C396.921 124.12 396.992 124.695 397.134 125.16C397.289 125.613 397.509 125.981 397.793 126.265C398.077 126.537 398.426 126.737 398.84 126.866C399.266 126.983 399.745 127.041 400.274 127.041C401.295 127.041 402.09 126.763 402.659 126.207C403.228 125.639 403.512 124.708 403.512 123.416V115.68C403.215 115.577 402.937 115.474 402.678 115.37C402.42 115.254 402.187 115.138 401.98 115.021V114.459H406.11V115.021C405.864 115.163 405.612 115.293 405.354 115.409C405.108 115.525 404.856 115.616 404.598 115.68V123.454C404.598 124.282 404.488 124.992 404.268 125.587C404.048 126.181 403.738 126.672 403.337 127.06C402.95 127.448 402.472 127.739 401.903 127.933C401.347 128.114 400.727 128.204 400.042 128.204C398.426 128.204 397.192 127.842 396.339 127.118C395.486 126.382 395.059 125.257 395.059 123.745V115.506C394.53 115.428 394 115.267 393.47 115.021V114.459Z" fill="black"/>
</svg>
