<svg width="594" height="132" viewBox="0 0 594 132" fill="none" xmlns="http://www.w3.org/2000/svg">
<path d="M15.1044 11.4953H58.3082V22.2963L57.4082 22.1463C57.4082 18.896 55.858 16.5708 52.7578 15.1707C49.6575 13.7205 45.2071 12.9955 39.4066 12.9955V47.0485C39.4066 50.6988 39.4816 53.5991 39.6316 55.7493C39.7816 57.8995 40.1316 59.4996 40.6817 60.5497C41.2317 61.5998 42.1068 62.2998 43.3069 62.6499C44.507 62.9499 46.1322 63.0999 48.1823 63.0999L48.3324 64H25.2303L25.3803 63.0999C27.4805 63.0999 29.1057 62.9499 30.2558 62.6499C31.4559 62.2998 32.3309 61.5998 32.881 60.5497C33.431 59.4996 33.7811 57.8995 33.9311 55.7493C34.0811 53.5991 34.1561 50.6988 34.1561 47.0485V12.9955C28.4056 12.9955 23.9302 13.7205 20.7299 15.1707C17.5796 16.5708 16.0045 18.896 16.0045 22.1463L15.1044 22.2963V11.4953ZM122.697 11.4953L122.547 12.3954C120.847 12.3954 119.447 12.5704 118.347 12.9205C117.297 13.2205 116.472 13.9206 115.872 15.0207C115.322 16.0707 114.922 17.6709 114.672 19.8211C114.472 21.9713 114.372 24.8715 114.372 28.5219V43.2232C114.372 47.5735 113.747 51.1739 112.496 54.0241C111.296 56.8244 109.696 58.9996 107.696 60.5497C105.746 62.0998 103.621 63.1999 101.32 63.85C99.0703 64.45 96.8951 64.7501 94.7949 64.7501C89.8444 64.7501 85.8691 63.875 82.8688 62.1248C79.9186 60.3747 77.7684 57.9495 76.4182 54.8492C75.1181 51.6989 74.4681 48.0736 74.4681 43.9732V28.4468C74.4681 24.7965 74.3931 21.8963 74.2431 19.7461C74.093 17.5959 73.768 15.9957 73.268 14.9456C72.8179 13.8956 72.0929 13.2205 71.0928 12.9205C70.1427 12.5704 68.8176 12.3954 67.1174 12.3954L66.9674 11.4953H87.1442L86.9942 12.3954C85.294 12.3954 83.9439 12.5704 82.9438 12.9205C81.9937 13.2205 81.2687 13.8956 80.7686 14.9456C80.3186 15.9957 80.0186 17.5959 79.8686 19.7461C79.7685 21.8963 79.7185 24.7965 79.7185 28.4468V44.3483C79.7185 48.8487 80.4186 52.424 81.8187 55.0742C83.2189 57.7244 85.119 59.6496 87.5192 60.8497C89.9694 61.9998 92.7197 62.5749 95.77 62.5749C98.6202 62.5749 101.32 61.9498 103.871 60.6997C106.421 59.4496 108.496 57.4244 110.096 54.6242C111.696 51.7739 112.496 48.0236 112.496 43.3732V28.5219C112.496 24.8715 112.371 21.9713 112.121 19.8211C111.921 17.6709 111.521 16.0707 110.921 15.0207C110.371 13.9206 109.571 13.2205 108.521 12.9205C107.471 12.5704 106.096 12.3954 104.396 12.3954L104.246 11.4953H122.697ZM181.727 63.0999L181.877 64H171.451C170.101 64 168.851 63.3999 167.701 62.1998C166.551 60.9497 165.426 59.3496 164.325 57.3994C163.275 55.3992 162.15 53.2991 160.95 51.0989C159.8 48.8987 158.5 46.8235 157.05 44.8733C155.65 42.8731 154.025 41.223 152.174 39.9229C150.374 38.5727 148.249 37.8477 145.799 37.7477V47.0485C145.799 50.6988 145.874 53.5991 146.024 55.7493C146.174 57.8995 146.499 59.4996 146.999 60.5497C147.499 61.5998 148.224 62.2998 149.174 62.6499C150.174 62.9499 151.524 63.0999 153.224 63.0999L153.374 64H133.273L133.423 63.0999C135.123 63.0999 136.448 62.9499 137.398 62.6499C138.398 62.2998 139.123 61.5998 139.573 60.5497C140.023 59.4996 140.298 57.8995 140.398 55.7493C140.548 53.5991 140.623 50.6988 140.623 47.0485V28.0718C140.623 24.4215 140.548 21.5462 140.398 19.446C140.298 17.3459 140.023 15.7957 139.573 14.7956C139.123 13.7955 138.398 13.1455 137.398 12.8455C136.448 12.5454 135.123 12.3954 133.423 12.3954L133.273 11.4953H150.674C152.824 11.4953 155 11.6704 157.2 12.0204C159.4 12.3204 161.425 12.9205 163.275 13.8205C165.176 14.7206 166.701 16.0207 167.851 17.7209C169.001 19.371 169.576 21.5462 169.576 24.2465C169.576 26.7967 168.951 29.0469 167.701 30.9971C166.451 32.8972 164.826 34.4474 162.825 35.6475C160.825 36.7976 158.675 37.4976 156.375 37.7477C158.325 38.8978 160 40.3229 161.4 42.023C162.8 43.6732 164.05 45.4484 165.151 47.3485C166.251 49.2487 167.326 51.1239 168.376 52.974C169.426 54.8242 170.551 56.5243 171.751 58.0745C172.951 59.5746 174.351 60.7997 175.951 61.7498C177.552 62.6499 179.477 63.0999 181.727 63.0999ZM145.799 13.2205V36.2475H150.524C152.874 36.2475 155.05 35.8475 157.05 35.0474C159.05 34.2474 160.65 32.9972 161.85 31.2971C163.1 29.5469 163.725 27.2467 163.725 24.3965C163.725 20.6462 162.575 17.8459 160.275 15.9957C158.025 14.1456 154.825 13.2205 150.674 13.2205H145.799ZM221.81 60.6997C221.81 59.5496 221.46 57.9495 220.76 55.8993C220.11 53.8491 219.135 51.0739 217.835 47.5735H194.957C193.907 50.6738 193.107 53.224 192.557 55.2242C192.007 57.2244 191.732 58.7995 191.732 59.9496C191.732 61.3998 192.207 62.2998 193.157 62.6499C194.107 62.9499 195.533 63.0999 197.433 63.0999L197.583 64H180.706L180.856 63.0999C182.156 63.0999 183.281 62.9499 184.232 62.6499C185.232 62.3499 186.157 61.6998 187.007 60.6997C187.857 59.6996 188.757 58.1495 189.707 56.0493C190.657 53.9491 191.757 51.0739 193.007 47.4235L199.683 28.1468C200.683 25.2966 201.433 23.0714 201.933 21.4712C202.433 19.8211 202.758 18.546 202.908 17.6459C203.108 16.7458 203.208 15.9707 203.208 15.3207C203.208 14.1706 202.858 13.3955 202.158 12.9955C201.458 12.5454 200.108 12.3204 198.108 12.3204L197.958 11.4953H210.334L223.61 47.4235C224.96 51.0739 226.06 53.9491 226.91 56.0493C227.81 58.1495 228.635 59.6996 229.386 60.6997C230.136 61.6998 230.936 62.3499 231.786 62.6499C232.636 62.9499 233.736 63.0999 235.086 63.0999L235.236 64H216.484L216.634 63.0999C218.385 63.0999 219.685 62.9749 220.535 62.7249C221.385 62.4249 221.81 61.7498 221.81 60.6997ZM206.133 15.5457L195.558 45.7734H217.234L206.133 15.5457ZM278.31 11.4953H296.912L296.762 12.3204C295.062 12.3204 293.662 12.4954 292.562 12.8455C291.512 13.1455 290.686 13.8205 290.086 14.8706C289.536 15.9207 289.136 17.5209 288.886 19.6711C288.686 21.8213 288.586 24.7215 288.586 28.3718V64.375H286.261L250.933 19.7461V46.8985C250.933 50.5488 251.033 53.4741 251.233 55.6743C251.483 57.8245 251.883 59.4496 252.433 60.5497C253.033 61.5998 253.858 62.2998 254.908 62.6499C255.958 62.9499 257.334 63.0999 259.034 63.0999L259.184 64H240.732L240.882 63.0999C242.582 63.0999 243.957 62.9499 245.007 62.6499C246.108 62.2998 246.933 61.5998 247.483 60.5497C248.083 59.4496 248.483 57.8245 248.683 55.6743C248.933 53.4741 249.058 50.5488 249.058 46.8985V28.3718C249.058 24.7215 248.933 21.8213 248.683 19.6711C248.483 17.5209 248.083 15.9207 247.483 14.8706C246.933 13.8205 246.108 13.1455 245.007 12.8455C243.957 12.4954 242.582 12.3204 240.882 12.3204L240.732 11.4953H250.933L286.711 56.1243V28.3718C286.711 24.7215 286.586 21.8213 286.336 19.6711C286.136 17.5209 285.736 15.9207 285.136 14.8706C284.536 13.8205 283.686 13.1455 282.586 12.8455C281.536 12.4954 280.161 12.3204 278.46 12.3204L278.31 11.4953ZM356.253 55.9743V58.2245C353.803 60.0747 350.953 61.6248 347.703 62.8749C344.502 64.125 340.477 64.7501 335.627 64.7501C331.526 64.7501 327.826 64.05 324.526 62.6499C321.225 61.2498 318.4 59.3246 316.05 56.8744C313.75 54.4242 311.974 51.5739 310.724 48.3236C309.474 45.0233 308.849 41.498 308.849 37.7477C308.849 32.7472 309.874 28.2218 311.924 24.1715C314.025 20.1211 317.025 16.8958 320.925 14.4956C324.826 12.0454 329.526 10.8203 335.027 10.8203C337.777 10.8203 340.452 11.0953 343.052 11.6454C345.702 12.1954 348.028 12.8205 350.028 13.5205C352.078 14.2206 353.578 14.8456 354.528 15.3957V24.9965L353.703 24.8465C352.403 20.1461 350.153 16.9208 346.953 15.1707C343.752 13.4205 339.777 12.5454 335.027 12.5454C330.626 12.5454 326.976 13.6455 324.076 15.8457C321.175 17.9959 319 20.9712 317.55 24.7715C316.1 28.5719 315.375 32.8972 315.375 37.7477C315.375 42.4981 316.15 46.7485 317.7 50.4988C319.25 54.2491 321.525 57.1994 324.526 59.3496C327.576 61.4998 331.276 62.5749 335.627 62.5749C339.027 62.5749 341.952 62.2748 344.402 61.6748C346.853 61.0747 349.028 60.2747 350.928 59.2746C352.828 58.2745 354.603 57.1744 356.253 55.9743ZM329.401 70.2256L331.651 64H334.051L332.326 68.8754C334.677 68.8754 336.702 69.4005 338.402 70.4506C340.152 71.5507 341.027 73.4258 341.027 76.0761C341.027 77.6262 340.602 78.9263 339.752 79.9764C338.902 81.0765 337.802 81.9016 336.452 82.4516C335.152 83.0517 333.776 83.3517 332.326 83.3517C331.026 83.3517 329.776 83.1017 328.576 82.6017C327.376 82.1016 326.376 81.3765 325.576 80.4265L326.926 78.9263C327.576 79.5764 328.301 80.0514 329.101 80.3515C329.951 80.6515 330.701 80.8015 331.351 80.8015C333.101 80.8015 334.401 80.3014 335.252 79.3014C336.102 78.3513 336.527 77.2762 336.527 76.0761C336.527 74.776 336.027 73.5508 335.027 72.4007C334.076 71.3006 332.201 70.5756 329.401 70.2256ZM380.249 28.4468V47.0485C380.249 50.6988 380.324 53.5991 380.474 55.7493C380.624 57.8995 380.924 59.4996 381.374 60.5497C381.874 61.5998 382.599 62.2998 383.549 62.6499C384.549 62.9499 385.9 63.0999 387.6 63.0999L387.75 64H367.498L367.648 63.0999C369.348 63.0999 370.698 62.9499 371.698 62.6499C372.698 62.2998 373.424 61.5998 373.874 60.5497C374.374 59.4996 374.674 57.8995 374.774 55.7493C374.924 53.5991 374.999 50.6988 374.999 47.0485V28.4468C374.999 24.7965 374.924 21.8963 374.774 19.7461C374.674 17.5959 374.374 15.9957 373.874 14.9456C373.424 13.8455 372.698 13.1455 371.698 12.8455C370.698 12.4954 369.348 12.3204 367.648 12.3204L367.498 11.4953H387.75L387.6 12.3204C385.9 12.3204 384.549 12.4954 383.549 12.8455C382.599 13.1455 381.874 13.8455 381.374 14.9456C380.924 15.9957 380.624 17.5959 380.474 19.7461C380.324 21.8963 380.249 24.7965 380.249 28.4468ZM373.349 4.51972C373.349 3.36962 373.774 2.36953 374.624 1.51945C375.474 0.66938 376.474 0.244343 377.624 0.244343C378.774 0.244343 379.774 0.66938 380.624 1.51945C381.474 2.36953 381.899 3.36962 381.899 4.51972C381.899 5.66982 381.474 6.66991 380.624 7.51999C379.774 8.37006 378.774 8.7951 377.624 8.7951C376.474 8.7951 375.474 8.37006 374.624 7.51999C373.774 6.66991 373.349 5.66982 373.349 4.51972ZM400.51 11.4953H435.538V22.2963L434.713 22.1463C434.713 18.646 432.838 16.2958 429.087 15.0957C425.337 13.8455 420.086 13.2205 413.336 13.2205V36.8476C416.186 36.7476 418.436 36.5726 420.086 36.3225C421.787 36.0225 423.037 35.5725 423.837 34.9724C424.637 34.3724 425.137 33.5723 425.337 32.5722C425.587 31.5221 425.712 30.222 425.712 28.6719L426.612 28.5219V46.7485L425.712 46.5985C425.712 44.9983 425.587 43.6982 425.337 42.6981C425.137 41.648 424.637 40.8479 423.837 40.2979C423.037 39.6978 421.787 39.2728 420.086 39.0228C418.436 38.7228 416.186 38.5477 413.336 38.4977V47.0485C413.336 50.6988 413.411 53.5991 413.561 55.7493C413.711 57.8995 414.086 59.4996 414.686 60.5497C415.336 61.5998 416.286 62.2998 417.536 62.6499C418.836 62.9499 420.611 63.0999 422.862 63.0999L423.012 64H400.51L400.66 63.0999C402.36 63.0999 403.685 62.9499 404.635 62.6499C405.635 62.2998 406.36 61.5998 406.81 60.5497C407.31 59.4996 407.635 57.8995 407.785 55.7493C407.935 53.5991 408.01 50.6988 408.01 47.0485V28.4468C408.01 24.7965 407.935 21.8963 407.785 19.7461C407.635 17.5959 407.31 15.9957 406.81 14.9456C406.36 13.8455 405.635 13.1455 404.635 12.8455C403.685 12.4954 402.36 12.3204 400.66 12.3204L400.51 11.4953ZM443.568 11.4953H486.772V22.2963L485.872 22.1463C485.872 18.896 484.322 16.5708 481.222 15.1707C478.121 13.7205 473.671 12.9955 467.87 12.9955V47.0485C467.87 50.6988 467.945 53.5991 468.095 55.7493C468.245 57.8995 468.595 59.4996 469.145 60.5497C469.696 61.5998 470.571 62.2998 471.771 62.6499C472.971 62.9499 474.596 63.0999 476.646 63.0999L476.796 64H453.694L453.844 63.0999C455.944 63.0999 457.569 62.9499 458.72 62.6499C459.92 62.2998 460.795 61.5998 461.345 60.5497C461.895 59.4996 462.245 57.8995 462.395 55.7493C462.545 53.5991 462.62 50.6988 462.62 47.0485V12.9955C456.869 12.9955 452.394 13.7205 449.194 15.1707C446.043 16.5708 444.468 18.896 444.468 22.1463L443.568 22.2963V11.4953ZM544.336 55.9743V58.2245C541.885 60.0747 539.035 61.6248 535.785 62.8749C532.584 64.125 528.559 64.7501 523.709 64.7501C519.608 64.7501 515.908 64.05 512.608 62.6499C509.307 61.2498 506.482 59.3246 504.132 56.8744C501.832 54.4242 500.057 51.5739 498.806 48.3236C497.556 45.0233 496.931 41.498 496.931 37.7477C496.931 32.7472 497.956 28.2218 500.007 24.1715C502.107 20.1211 505.107 16.8958 509.007 14.4956C512.908 12.0454 517.608 10.8203 523.109 10.8203C525.859 10.8203 528.534 11.0953 531.134 11.6454C533.785 12.1954 536.11 12.8205 538.11 13.5205C540.16 14.2206 541.66 14.8456 542.61 15.3957V24.9965L541.785 24.8465C540.485 20.1461 538.235 16.9208 535.035 15.1707C531.834 13.4205 527.859 12.5454 523.109 12.5454C518.708 12.5454 515.058 13.6455 512.158 15.8457C509.257 17.9959 507.082 20.9712 505.632 24.7715C504.182 28.5719 503.457 32.8972 503.457 37.7477C503.457 42.4981 504.232 46.7485 505.782 50.4988C507.332 54.2491 509.607 57.1994 512.608 59.3496C515.658 61.4998 519.358 62.5749 523.709 62.5749C527.109 62.5749 530.034 62.2748 532.484 61.6748C534.935 61.0747 537.11 60.2747 539.01 59.2746C540.91 58.2745 542.685 57.1744 544.336 55.9743ZM517.483 70.2256L519.733 64H522.134L520.408 68.8754C522.759 68.8754 524.784 69.4005 526.484 70.4506C528.234 71.5507 529.109 73.4258 529.109 76.0761C529.109 77.6262 528.684 78.9263 527.834 79.9764C526.984 81.0765 525.884 81.9016 524.534 82.4516C523.234 83.0517 521.859 83.3517 520.408 83.3517C519.108 83.3517 517.858 83.1017 516.658 82.6017C515.458 82.1016 514.458 81.3765 513.658 80.4265L515.008 78.9263C515.658 79.5764 516.383 80.0514 517.183 80.3515C518.033 80.6515 518.783 80.8015 519.433 80.8015C521.183 80.8015 522.484 80.3014 523.334 79.3014C524.184 78.3513 524.609 77.2762 524.609 76.0761C524.609 74.776 524.109 73.5508 523.109 72.4007C522.159 71.3006 520.283 70.5756 517.483 70.2256ZM568.331 28.4468V47.0485C568.331 50.6988 568.406 53.5991 568.556 55.7493C568.706 57.8995 569.006 59.4996 569.456 60.5497C569.956 61.5998 570.681 62.2998 571.632 62.6499C572.632 62.9499 573.982 63.0999 575.682 63.0999L575.832 64H555.58L555.73 63.0999C557.43 63.0999 558.78 62.9499 559.78 62.6499C560.781 62.2998 561.506 61.5998 561.956 60.5497C562.456 59.4996 562.756 57.8995 562.856 55.7493C563.006 53.5991 563.081 50.6988 563.081 47.0485V28.4468C563.081 24.7965 563.006 21.8963 562.856 19.7461C562.756 17.5959 562.456 15.9957 561.956 14.9456C561.506 13.8455 560.781 13.1455 559.78 12.8455C558.78 12.4954 557.43 12.3204 555.73 12.3204L555.58 11.4953H575.832L575.682 12.3204C573.982 12.3204 572.632 12.4954 571.632 12.8455C570.681 13.1455 569.956 13.8455 569.456 14.9456C569.006 15.9957 568.706 17.5959 568.556 19.7461C568.406 21.8963 568.331 24.7965 568.331 28.4468ZM561.431 4.51972C561.431 3.36962 561.856 2.36953 562.706 1.51945C563.556 0.66938 564.556 0.244343 565.706 0.244343C566.856 0.244343 567.856 0.66938 568.706 1.51945C569.556 2.36953 569.981 3.36962 569.981 4.51972C569.981 5.66982 569.556 6.66991 568.706 7.51999C567.856 8.37006 566.856 8.7951 565.706 8.7951C564.556 8.7951 563.556 8.37006 562.706 7.51999C561.856 6.66991 561.431 5.66982 561.431 4.51972Z" fill="black"/>
<path d="M225.06 128.03H220.756V127.467C221.222 127.261 221.687 127.105 222.152 127.002L227.057 114.226H227.619L232.524 127.002C232.782 127.054 233.034 127.112 233.28 127.177C233.538 127.241 233.778 127.338 233.997 127.467V128.03H229.034V127.467C229.293 127.364 229.558 127.273 229.829 127.196C230.101 127.118 230.366 127.054 230.624 127.002L229.306 123.454H224.672L223.393 127.002C223.936 127.08 224.491 127.235 225.06 127.467V128.03ZM225.06 122.446H228.976L227.445 118.336L227.076 116.669H227.038L226.553 118.375L225.06 122.446ZM241.337 128.03V127.467C241.854 127.222 242.384 127.067 242.927 127.002V115.506C242.668 115.454 242.403 115.39 242.132 115.312C241.861 115.222 241.596 115.125 241.337 115.021V114.459H243.392C243.638 114.459 243.87 114.453 244.09 114.44C244.323 114.427 244.562 114.414 244.807 114.401C245.053 114.388 245.318 114.375 245.602 114.362C245.887 114.349 246.21 114.343 246.572 114.343C247.089 114.343 247.612 114.388 248.142 114.478C248.685 114.556 249.169 114.711 249.596 114.944C250.035 115.176 250.391 115.506 250.662 115.932C250.933 116.346 251.069 116.889 251.069 117.561C251.069 117.897 251.017 118.233 250.914 118.569C250.811 118.905 250.649 119.222 250.429 119.519C250.223 119.803 249.958 120.055 249.635 120.275C249.311 120.495 248.93 120.656 248.491 120.76V120.837C248.879 120.902 249.26 121.012 249.635 121.167C250.022 121.322 250.365 121.535 250.662 121.807C250.959 122.065 251.198 122.388 251.379 122.776C251.573 123.164 251.67 123.629 251.67 124.172C251.67 124.87 251.515 125.471 251.205 125.975C250.895 126.479 250.488 126.892 249.984 127.215C249.492 127.538 248.93 127.778 248.297 127.933C247.664 128.075 247.024 128.146 246.378 128.146C245.925 128.146 245.415 128.126 244.846 128.088C244.278 128.049 243.728 128.03 243.198 128.03H241.337ZM246.513 127.138C246.979 127.138 247.412 127.067 247.812 126.925C248.226 126.782 248.575 126.588 248.859 126.343C249.156 126.084 249.389 125.781 249.557 125.432C249.725 125.07 249.809 124.682 249.809 124.269C249.809 123.752 249.706 123.325 249.499 122.989C249.305 122.64 249.034 122.369 248.685 122.175C248.349 121.968 247.954 121.826 247.502 121.748C247.063 121.671 246.604 121.632 246.126 121.632H244.672V126.983C244.853 127.034 245.066 127.073 245.311 127.099C245.57 127.125 245.971 127.138 246.513 127.138ZM245.641 120.624C245.861 120.624 246.119 120.617 246.416 120.605C246.727 120.579 246.979 120.553 247.173 120.527C247.767 120.32 248.252 119.991 248.627 119.538C249.014 119.073 249.208 118.53 249.208 117.91C249.208 117.057 248.95 116.417 248.433 115.991C247.929 115.564 247.25 115.351 246.397 115.351C245.996 115.351 245.654 115.357 245.37 115.37C245.085 115.383 244.853 115.403 244.672 115.428V120.624H245.641ZM260.515 121.244C260.515 120.236 260.651 119.306 260.922 118.453C261.206 117.587 261.607 116.844 262.124 116.223C262.654 115.59 263.3 115.099 264.063 114.75C264.825 114.401 265.691 114.226 266.66 114.226C267.63 114.226 268.496 114.401 269.258 114.75C270.021 115.099 270.66 115.59 271.177 116.223C271.707 116.844 272.108 117.587 272.379 118.453C272.664 119.306 272.806 120.236 272.806 121.244C272.806 122.252 272.664 123.189 272.379 124.055C272.108 124.908 271.707 125.651 271.177 126.285C270.66 126.905 270.021 127.39 269.258 127.739C268.496 128.088 267.63 128.262 266.66 128.262C265.691 128.262 264.825 128.088 264.063 127.739C263.3 127.39 262.654 126.905 262.124 126.285C261.607 125.651 261.206 124.908 260.922 124.055C260.651 123.189 260.515 122.252 260.515 121.244ZM262.589 121.244C262.589 122.071 262.673 122.853 262.841 123.59C263.022 124.314 263.287 124.947 263.636 125.49C263.985 126.033 264.424 126.466 264.954 126.789C265.484 127.099 266.111 127.254 266.835 127.254C267.494 127.254 268.069 127.099 268.56 126.789C269.051 126.466 269.452 126.033 269.762 125.49C270.085 124.947 270.324 124.314 270.479 123.59C270.648 122.853 270.732 122.071 270.732 121.244C270.732 120.417 270.648 119.642 270.479 118.918C270.311 118.181 270.053 117.542 269.704 116.999C269.355 116.456 268.916 116.029 268.386 115.719C267.856 115.396 267.229 115.235 266.505 115.235C265.794 115.235 265.187 115.396 264.683 115.719C264.192 116.029 263.791 116.456 263.481 116.999C263.171 117.542 262.945 118.181 262.802 118.918C262.66 119.642 262.589 120.417 262.589 121.244ZM292.429 127.099C292.184 127.241 291.893 127.383 291.557 127.525C291.234 127.655 290.885 127.778 290.51 127.894C290.148 127.997 289.78 128.081 289.405 128.146C289.043 128.223 288.701 128.262 288.378 128.262C287.344 128.262 286.413 128.126 285.586 127.855C284.759 127.571 284.054 127.144 283.473 126.576C282.891 125.994 282.439 125.264 282.116 124.385C281.806 123.506 281.651 122.459 281.651 121.244C281.651 119.978 281.831 118.899 282.193 118.007C282.568 117.115 283.059 116.391 283.667 115.836C284.287 115.267 284.985 114.86 285.76 114.614C286.549 114.356 287.35 114.226 288.164 114.226C289.017 114.226 289.735 114.285 290.316 114.401C290.911 114.504 291.428 114.666 291.867 114.886C291.867 115.079 291.861 115.319 291.848 115.603C291.835 115.887 291.815 116.184 291.79 116.495C291.764 116.805 291.731 117.115 291.693 117.425C291.654 117.722 291.615 117.987 291.576 118.22H291.072L290.064 115.428C289.922 115.351 289.683 115.299 289.347 115.273C289.011 115.247 288.681 115.235 288.358 115.235C287.712 115.235 287.098 115.357 286.517 115.603C285.935 115.836 285.424 116.204 284.985 116.708C284.559 117.199 284.216 117.826 283.958 118.588C283.699 119.338 283.57 120.223 283.57 121.244C283.57 122.162 283.693 122.989 283.938 123.726C284.197 124.462 284.546 125.096 284.985 125.626C285.437 126.143 285.961 126.543 286.555 126.828C287.163 127.112 287.815 127.254 288.513 127.254C288.772 127.254 289.024 127.228 289.269 127.177C289.515 127.125 289.741 127.067 289.948 127.002C290.155 126.925 290.323 126.847 290.452 126.769C290.594 126.692 290.691 126.627 290.743 126.576V122.66C290.407 122.634 290.084 122.576 289.773 122.485C289.476 122.395 289.179 122.298 288.882 122.194V121.632H293.631V122.194C293.502 122.285 293.347 122.369 293.166 122.446C292.985 122.524 292.74 122.595 292.429 122.66V127.099ZM305.059 128.03H300.755V127.467C301.221 127.261 301.686 127.105 302.151 127.002L307.056 114.226H307.618L312.523 127.002C312.781 127.054 313.033 127.112 313.279 127.177C313.537 127.241 313.777 127.338 313.996 127.467V128.03H309.033V127.467C309.292 127.364 309.557 127.273 309.828 127.196C310.1 127.118 310.365 127.054 310.623 127.002L309.305 123.454H304.671L303.392 127.002C303.935 127.08 304.49 127.235 305.059 127.467V128.03ZM305.059 122.446H308.975L307.444 118.336L307.075 116.669H307.037L306.552 118.375L305.059 122.446ZM321.336 128.03V127.467C321.789 127.261 322.318 127.105 322.926 127.002V115.506C322.629 115.441 322.344 115.37 322.073 115.293C321.801 115.202 321.556 115.112 321.336 115.021V114.459H323.314C323.533 114.459 323.792 114.453 324.089 114.44C324.386 114.427 324.69 114.414 325 114.401C325.323 114.375 325.627 114.356 325.911 114.343C326.209 114.317 326.454 114.304 326.648 114.304C328.845 114.304 330.532 114.892 331.708 116.068C332.897 117.244 333.491 118.911 333.491 121.07C333.491 122.091 333.343 123.041 333.046 123.92C332.761 124.786 332.322 125.535 331.727 126.168C331.133 126.802 330.377 127.299 329.459 127.661C328.554 128.023 327.482 128.204 326.241 128.204C326.047 128.204 325.827 128.191 325.582 128.165C325.336 128.152 325.078 128.133 324.806 128.107C324.535 128.094 324.257 128.075 323.973 128.049C323.701 128.036 323.443 128.03 323.197 128.03H321.336ZM326.377 115.312C326.041 115.312 325.718 115.319 325.407 115.331C325.097 115.331 324.852 115.351 324.671 115.39V127.138C324.735 127.151 324.852 127.164 325.02 127.177C325.188 127.177 325.369 127.183 325.562 127.196C325.756 127.196 325.937 127.196 326.105 127.196C326.286 127.196 326.415 127.196 326.493 127.196C327.385 127.196 328.141 127.028 328.761 126.692C329.382 126.356 329.886 125.91 330.273 125.354C330.674 124.786 330.965 124.133 331.146 123.396C331.327 122.66 331.417 121.884 331.417 121.07C331.417 120.437 331.327 119.784 331.146 119.112C330.978 118.427 330.693 117.806 330.293 117.251C329.905 116.682 329.388 116.217 328.742 115.855C328.096 115.493 327.307 115.312 326.377 115.312ZM342.312 121.244C342.312 120.236 342.448 119.306 342.72 118.453C343.004 117.587 343.404 116.844 343.921 116.223C344.451 115.59 345.098 115.099 345.86 114.75C346.623 114.401 347.489 114.226 348.458 114.226C349.427 114.226 350.293 114.401 351.056 114.75C351.818 115.099 352.458 115.59 352.975 116.223C353.505 116.844 353.905 117.587 354.177 118.453C354.461 119.306 354.603 120.236 354.603 121.244C354.603 122.252 354.461 123.189 354.177 124.055C353.905 124.908 353.505 125.651 352.975 126.285C352.458 126.905 351.818 127.39 351.056 127.739C350.293 128.088 349.427 128.262 348.458 128.262C347.489 128.262 346.623 128.088 345.86 127.739C345.098 127.39 344.451 126.905 343.921 126.285C343.404 125.651 343.004 124.908 342.72 124.055C342.448 123.189 342.312 122.252 342.312 121.244ZM344.387 121.244C344.387 122.071 344.471 122.853 344.639 123.59C344.82 124.314 345.085 124.947 345.434 125.49C345.783 126.033 346.222 126.466 346.752 126.789C347.282 127.099 347.909 127.254 348.632 127.254C349.291 127.254 349.867 127.099 350.358 126.789C350.849 126.466 351.249 126.033 351.56 125.49C351.883 124.947 352.122 124.314 352.277 123.59C352.445 122.853 352.529 122.071 352.529 121.244C352.529 120.417 352.445 119.642 352.277 118.918C352.109 118.181 351.85 117.542 351.502 116.999C351.153 116.456 350.713 116.029 350.183 115.719C349.653 115.396 349.027 115.235 348.303 115.235C347.592 115.235 346.984 115.396 346.48 115.719C345.989 116.029 345.589 116.456 345.279 116.999C344.968 117.542 344.742 118.181 344.6 118.918C344.458 119.642 344.387 120.417 344.387 121.244ZM365.329 126.692C365.484 126.847 365.684 126.983 365.93 127.099C366.175 127.202 366.543 127.254 367.035 127.254C367.448 127.254 367.836 127.202 368.198 127.099C368.56 126.983 368.87 126.821 369.128 126.614C369.4 126.395 369.613 126.136 369.768 125.839C369.923 125.529 370.001 125.18 370.001 124.792C370.001 124.275 369.839 123.842 369.516 123.493C369.206 123.144 368.812 122.834 368.333 122.563C367.868 122.291 367.358 122.026 366.802 121.768C366.246 121.509 365.729 121.206 365.251 120.857C364.786 120.495 364.392 120.068 364.068 119.577C363.758 119.073 363.603 118.446 363.603 117.697C363.603 117.154 363.7 116.669 363.894 116.243C364.088 115.816 364.359 115.454 364.708 115.157C365.07 114.86 365.497 114.634 365.988 114.478C366.479 114.31 367.028 114.226 367.636 114.226C368.424 114.226 369.141 114.291 369.787 114.42C370.447 114.537 370.964 114.685 371.338 114.866C371.338 115.086 371.319 115.344 371.28 115.642C371.254 115.926 371.216 116.223 371.164 116.533C371.125 116.844 371.08 117.147 371.028 117.445C370.976 117.729 370.925 117.981 370.873 118.201H370.369L369.594 115.545C369.361 115.441 369.064 115.364 368.702 115.312C368.353 115.26 367.978 115.235 367.577 115.235C366.918 115.235 366.388 115.422 365.988 115.797C365.587 116.159 365.387 116.669 365.387 117.328C365.387 117.858 365.542 118.304 365.852 118.666C366.175 119.028 366.576 119.351 367.054 119.635C367.532 119.92 368.043 120.197 368.585 120.469C369.141 120.727 369.658 121.031 370.136 121.38C370.615 121.729 371.009 122.143 371.319 122.621C371.642 123.099 371.804 123.693 371.804 124.404C371.804 124.986 371.694 125.516 371.474 125.994C371.267 126.472 370.964 126.879 370.563 127.215C370.162 127.551 369.671 127.81 369.089 127.991C368.508 128.172 367.849 128.262 367.112 128.262C366.298 128.262 365.568 128.165 364.921 127.971C364.275 127.778 363.816 127.571 363.545 127.351C363.558 127.131 363.577 126.866 363.603 126.556C363.642 126.246 363.681 125.929 363.719 125.606C363.771 125.27 363.823 124.947 363.875 124.637C363.926 124.327 363.978 124.062 364.03 123.842H364.534L365.329 126.692Z" fill="black"/>
</svg>
