<svg width="594" height="132" viewBox="0 0 594 132" fill="none" xmlns="http://www.w3.org/2000/svg">
<path d="M15.1044 11.4953H58.3082V22.2963L57.4082 22.1463C57.4082 18.896 55.858 16.5708 52.7578 15.1707C49.6575 13.7205 45.2071 12.9955 39.4066 12.9955V47.0485C39.4066 50.6988 39.4816 53.5991 39.6316 55.7493C39.7816 57.8995 40.1316 59.4996 40.6817 60.5497C41.2317 61.5998 42.1068 62.2998 43.3069 62.6499C44.507 62.9499 46.1322 63.0999 48.1823 63.0999L48.3324 64H25.2303L25.3803 63.0999C27.4805 63.0999 29.1057 62.9499 30.2558 62.6499C31.4559 62.2998 32.3309 61.5998 32.881 60.5497C33.431 59.4996 33.7811 57.8995 33.9311 55.7493C34.0811 53.5991 34.1561 50.6988 34.1561 47.0485V12.9955C28.4056 12.9955 23.9302 13.7205 20.7299 15.1707C17.5796 16.5708 16.0045 18.896 16.0045 22.1463L15.1044 22.2963V11.4953ZM122.697 11.4953L122.547 12.3954C120.847 12.3954 119.447 12.5704 118.347 12.9205C117.297 13.2205 116.472 13.9206 115.872 15.0207C115.322 16.0707 114.922 17.6709 114.672 19.8211C114.472 21.9713 114.372 24.8715 114.372 28.5219V43.2232C114.372 47.5735 113.747 51.1739 112.496 54.0241C111.296 56.8244 109.696 58.9996 107.696 60.5497C105.746 62.0998 103.621 63.1999 101.32 63.85C99.0703 64.45 96.8951 64.7501 94.7949 64.7501C89.8444 64.7501 85.8691 63.875 82.8688 62.1248C79.9186 60.3747 77.7684 57.9495 76.4182 54.8492C75.1181 51.6989 74.4681 48.0736 74.4681 43.9732V28.4468C74.4681 24.7965 74.3931 21.8963 74.2431 19.7461C74.093 17.5959 73.768 15.9957 73.268 14.9456C72.8179 13.8956 72.0929 13.2205 71.0928 12.9205C70.1427 12.5704 68.8176 12.3954 67.1174 12.3954L66.9674 11.4953H87.1442L86.9942 12.3954C85.294 12.3954 83.9439 12.5704 82.9438 12.9205C81.9937 13.2205 81.2687 13.8956 80.7686 14.9456C80.3186 15.9957 80.0186 17.5959 79.8686 19.7461C79.7685 21.8963 79.7185 24.7965 79.7185 28.4468V44.3483C79.7185 48.8487 80.4186 52.424 81.8187 55.0742C83.2189 57.7244 85.119 59.6496 87.5192 60.8497C89.9694 61.9998 92.7197 62.5749 95.77 62.5749C98.6202 62.5749 101.32 61.9498 103.871 60.6997C106.421 59.4496 108.496 57.4244 110.096 54.6242C111.696 51.7739 112.496 48.0236 112.496 43.3732V28.5219C112.496 24.8715 112.371 21.9713 112.121 19.8211C111.921 17.6709 111.521 16.0707 110.921 15.0207C110.371 13.9206 109.571 13.2205 108.521 12.9205C107.471 12.5704 106.096 12.3954 104.396 12.3954L104.246 11.4953H122.697ZM181.727 63.0999L181.877 64H171.451C170.101 64 168.851 63.3999 167.701 62.1998C166.551 60.9497 165.426 59.3496 164.325 57.3994C163.275 55.3992 162.15 53.2991 160.95 51.0989C159.8 48.8987 158.5 46.8235 157.05 44.8733C155.65 42.8731 154.025 41.223 152.174 39.9229C150.374 38.5727 148.249 37.8477 145.799 37.7477V47.0485C145.799 50.6988 145.874 53.5991 146.024 55.7493C146.174 57.8995 146.499 59.4996 146.999 60.5497C147.499 61.5998 148.224 62.2998 149.174 62.6499C150.174 62.9499 151.524 63.0999 153.224 63.0999L153.374 64H133.273L133.423 63.0999C135.123 63.0999 136.448 62.9499 137.398 62.6499C138.398 62.2998 139.123 61.5998 139.573 60.5497C140.023 59.4996 140.298 57.8995 140.398 55.7493C140.548 53.5991 140.623 50.6988 140.623 47.0485V28.0718C140.623 24.4215 140.548 21.5462 140.398 19.446C140.298 17.3459 140.023 15.7957 139.573 14.7956C139.123 13.7955 138.398 13.1455 137.398 12.8455C136.448 12.5454 135.123 12.3954 133.423 12.3954L133.273 11.4953H150.674C152.824 11.4953 155 11.6704 157.2 12.0204C159.4 12.3204 161.425 12.9205 163.275 13.8205C165.176 14.7206 166.701 16.0207 167.851 17.7209C169.001 19.371 169.576 21.5462 169.576 24.2465C169.576 26.7967 168.951 29.0469 167.701 30.9971C166.451 32.8972 164.826 34.4474 162.825 35.6475C160.825 36.7976 158.675 37.4976 156.375 37.7477C158.325 38.8978 160 40.3229 161.4 42.023C162.8 43.6732 164.05 45.4484 165.151 47.3485C166.251 49.2487 167.326 51.1239 168.376 52.974C169.426 54.8242 170.551 56.5243 171.751 58.0745C172.951 59.5746 174.351 60.7997 175.951 61.7498C177.552 62.6499 179.477 63.0999 181.727 63.0999ZM145.799 13.2205V36.2475H150.524C152.874 36.2475 155.05 35.8475 157.05 35.0474C159.05 34.2474 160.65 32.9972 161.85 31.2971C163.1 29.5469 163.725 27.2467 163.725 24.3965C163.725 20.6462 162.575 17.8459 160.275 15.9957C158.025 14.1456 154.825 13.2205 150.674 13.2205H145.799ZM221.81 60.6997C221.81 59.5496 221.46 57.9495 220.76 55.8993C220.11 53.8491 219.135 51.0739 217.835 47.5735H194.957C193.907 50.6738 193.107 53.224 192.557 55.2242C192.007 57.2244 191.732 58.7995 191.732 59.9496C191.732 61.3998 192.207 62.2998 193.157 62.6499C194.107 62.9499 195.533 63.0999 197.433 63.0999L197.583 64H180.706L180.856 63.0999C182.156 63.0999 183.281 62.9499 184.232 62.6499C185.232 62.3499 186.157 61.6998 187.007 60.6997C187.857 59.6996 188.757 58.1495 189.707 56.0493C190.657 53.9491 191.757 51.0739 193.007 47.4235L199.683 28.1468C200.683 25.2966 201.433 23.0714 201.933 21.4712C202.433 19.8211 202.758 18.546 202.908 17.6459C203.108 16.7458 203.208 15.9707 203.208 15.3207C203.208 14.1706 202.858 13.3955 202.158 12.9955C201.458 12.5454 200.108 12.3204 198.108 12.3204L197.958 11.4953H210.334L223.61 47.4235C224.96 51.0739 226.06 53.9491 226.91 56.0493C227.81 58.1495 228.635 59.6996 229.386 60.6997C230.136 61.6998 230.936 62.3499 231.786 62.6499C232.636 62.9499 233.736 63.0999 235.086 63.0999L235.236 64H216.484L216.634 63.0999C218.385 63.0999 219.685 62.9749 220.535 62.7249C221.385 62.4249 221.81 61.7498 221.81 60.6997ZM206.133 15.5457L195.558 45.7734H217.234L206.133 15.5457ZM278.31 11.4953H296.912L296.762 12.3204C295.062 12.3204 293.662 12.4954 292.562 12.8455C291.512 13.1455 290.686 13.8205 290.086 14.8706C289.536 15.9207 289.136 17.5209 288.886 19.6711C288.686 21.8213 288.586 24.7215 288.586 28.3718V64.375H286.261L250.933 19.7461V46.8985C250.933 50.5488 251.033 53.4741 251.233 55.6743C251.483 57.8245 251.883 59.4496 252.433 60.5497C253.033 61.5998 253.858 62.2998 254.908 62.6499C255.958 62.9499 257.334 63.0999 259.034 63.0999L259.184 64H240.732L240.882 63.0999C242.582 63.0999 243.957 62.9499 245.007 62.6499C246.108 62.2998 246.933 61.5998 247.483 60.5497C248.083 59.4496 248.483 57.8245 248.683 55.6743C248.933 53.4741 249.058 50.5488 249.058 46.8985V28.3718C249.058 24.7215 248.933 21.8213 248.683 19.6711C248.483 17.5209 248.083 15.9207 247.483 14.8706C246.933 13.8205 246.108 13.1455 245.007 12.8455C243.957 12.4954 242.582 12.3204 240.882 12.3204L240.732 11.4953H250.933L286.711 56.1243V28.3718C286.711 24.7215 286.586 21.8213 286.336 19.6711C286.136 17.5209 285.736 15.9207 285.136 14.8706C284.536 13.8205 283.686 13.1455 282.586 12.8455C281.536 12.4954 280.161 12.3204 278.46 12.3204L278.31 11.4953ZM356.253 55.9743V58.2245C353.803 60.0747 350.953 61.6248 347.703 62.8749C344.502 64.125 340.477 64.7501 335.627 64.7501C331.526 64.7501 327.826 64.05 324.526 62.6499C321.225 61.2498 318.4 59.3246 316.05 56.8744C313.75 54.4242 311.974 51.5739 310.724 48.3236C309.474 45.0233 308.849 41.498 308.849 37.7477C308.849 32.7472 309.874 28.2218 311.924 24.1715C314.025 20.1211 317.025 16.8958 320.925 14.4956C324.826 12.0454 329.526 10.8203 335.027 10.8203C337.777 10.8203 340.452 11.0953 343.052 11.6454C345.702 12.1954 348.028 12.8205 350.028 13.5205C352.078 14.2206 353.578 14.8456 354.528 15.3957V24.9965L353.703 24.8465C352.403 20.1461 350.153 16.9208 346.953 15.1707C343.752 13.4205 339.777 12.5454 335.027 12.5454C330.626 12.5454 326.976 13.6455 324.076 15.8457C321.175 17.9959 319 20.9712 317.55 24.7715C316.1 28.5719 315.375 32.8972 315.375 37.7477C315.375 42.4981 316.15 46.7485 317.7 50.4988C319.25 54.2491 321.525 57.1994 324.526 59.3496C327.576 61.4998 331.276 62.5749 335.627 62.5749C339.027 62.5749 341.952 62.2748 344.402 61.6748C346.853 61.0747 349.028 60.2747 350.928 59.2746C352.828 58.2745 354.603 57.1744 356.253 55.9743ZM329.401 70.2256L331.651 64H334.051L332.326 68.8754C334.677 68.8754 336.702 69.4005 338.402 70.4506C340.152 71.5507 341.027 73.4258 341.027 76.0761C341.027 77.6262 340.602 78.9263 339.752 79.9764C338.902 81.0765 337.802 81.9016 336.452 82.4516C335.152 83.0517 333.776 83.3517 332.326 83.3517C331.026 83.3517 329.776 83.1017 328.576 82.6017C327.376 82.1016 326.376 81.3765 325.576 80.4265L326.926 78.9263C327.576 79.5764 328.301 80.0514 329.101 80.3515C329.951 80.6515 330.701 80.8015 331.351 80.8015C333.101 80.8015 334.401 80.3014 335.252 79.3014C336.102 78.3513 336.527 77.2762 336.527 76.0761C336.527 74.776 336.027 73.5508 335.027 72.4007C334.076 71.3006 332.201 70.5756 329.401 70.2256ZM380.249 28.4468V47.0485C380.249 50.6988 380.324 53.5991 380.474 55.7493C380.624 57.8995 380.924 59.4996 381.374 60.5497C381.874 61.5998 382.599 62.2998 383.549 62.6499C384.549 62.9499 385.9 63.0999 387.6 63.0999L387.75 64H367.498L367.648 63.0999C369.348 63.0999 370.698 62.9499 371.698 62.6499C372.698 62.2998 373.424 61.5998 373.874 60.5497C374.374 59.4996 374.674 57.8995 374.774 55.7493C374.924 53.5991 374.999 50.6988 374.999 47.0485V28.4468C374.999 24.7965 374.924 21.8963 374.774 19.7461C374.674 17.5959 374.374 15.9957 373.874 14.9456C373.424 13.8455 372.698 13.1455 371.698 12.8455C370.698 12.4954 369.348 12.3204 367.648 12.3204L367.498 11.4953H387.75L387.6 12.3204C385.9 12.3204 384.549 12.4954 383.549 12.8455C382.599 13.1455 381.874 13.8455 381.374 14.9456C380.924 15.9957 380.624 17.5959 380.474 19.7461C380.324 21.8963 380.249 24.7965 380.249 28.4468ZM373.349 4.51972C373.349 3.36962 373.774 2.36953 374.624 1.51945C375.474 0.66938 376.474 0.244343 377.624 0.244343C378.774 0.244343 379.774 0.66938 380.624 1.51945C381.474 2.36953 381.899 3.36962 381.899 4.51972C381.899 5.66982 381.474 6.66991 380.624 7.51999C379.774 8.37006 378.774 8.7951 377.624 8.7951C376.474 8.7951 375.474 8.37006 374.624 7.51999C373.774 6.66991 373.349 5.66982 373.349 4.51972ZM400.51 11.4953H435.538V22.2963L434.713 22.1463C434.713 18.646 432.838 16.2958 429.087 15.0957C425.337 13.8455 420.086 13.2205 413.336 13.2205V36.8476C416.186 36.7476 418.436 36.5726 420.086 36.3225C421.787 36.0225 423.037 35.5725 423.837 34.9724C424.637 34.3724 425.137 33.5723 425.337 32.5722C425.587 31.5221 425.712 30.222 425.712 28.6719L426.612 28.5219V46.7485L425.712 46.5985C425.712 44.9983 425.587 43.6982 425.337 42.6981C425.137 41.648 424.637 40.8479 423.837 40.2979C423.037 39.6978 421.787 39.2728 420.086 39.0228C418.436 38.7228 416.186 38.5477 413.336 38.4977V47.0485C413.336 50.6988 413.411 53.5991 413.561 55.7493C413.711 57.8995 414.086 59.4996 414.686 60.5497C415.336 61.5998 416.286 62.2998 417.536 62.6499C418.836 62.9499 420.611 63.0999 422.862 63.0999L423.012 64H400.51L400.66 63.0999C402.36 63.0999 403.685 62.9499 404.635 62.6499C405.635 62.2998 406.36 61.5998 406.81 60.5497C407.31 59.4996 407.635 57.8995 407.785 55.7493C407.935 53.5991 408.01 50.6988 408.01 47.0485V28.4468C408.01 24.7965 407.935 21.8963 407.785 19.7461C407.635 17.5959 407.31 15.9957 406.81 14.9456C406.36 13.8455 405.635 13.1455 404.635 12.8455C403.685 12.4954 402.36 12.3204 400.66 12.3204L400.51 11.4953ZM443.568 11.4953H486.772V22.2963L485.872 22.1463C485.872 18.896 484.322 16.5708 481.222 15.1707C478.121 13.7205 473.671 12.9955 467.87 12.9955V47.0485C467.87 50.6988 467.945 53.5991 468.095 55.7493C468.245 57.8995 468.595 59.4996 469.145 60.5497C469.696 61.5998 470.571 62.2998 471.771 62.6499C472.971 62.9499 474.596 63.0999 476.646 63.0999L476.796 64H453.694L453.844 63.0999C455.944 63.0999 457.569 62.9499 458.72 62.6499C459.92 62.2998 460.795 61.5998 461.345 60.5497C461.895 59.4996 462.245 57.8995 462.395 55.7493C462.545 53.5991 462.62 50.6988 462.62 47.0485V12.9955C456.869 12.9955 452.394 13.7205 449.194 15.1707C446.043 16.5708 444.468 18.896 444.468 22.1463L443.568 22.2963V11.4953ZM544.336 55.9743V58.2245C541.885 60.0747 539.035 61.6248 535.785 62.8749C532.584 64.125 528.559 64.7501 523.709 64.7501C519.608 64.7501 515.908 64.05 512.608 62.6499C509.307 61.2498 506.482 59.3246 504.132 56.8744C501.832 54.4242 500.057 51.5739 498.806 48.3236C497.556 45.0233 496.931 41.498 496.931 37.7477C496.931 32.7472 497.956 28.2218 500.007 24.1715C502.107 20.1211 505.107 16.8958 509.007 14.4956C512.908 12.0454 517.608 10.8203 523.109 10.8203C525.859 10.8203 528.534 11.0953 531.134 11.6454C533.785 12.1954 536.11 12.8205 538.11 13.5205C540.16 14.2206 541.66 14.8456 542.61 15.3957V24.9965L541.785 24.8465C540.485 20.1461 538.235 16.9208 535.035 15.1707C531.834 13.4205 527.859 12.5454 523.109 12.5454C518.708 12.5454 515.058 13.6455 512.158 15.8457C509.257 17.9959 507.082 20.9712 505.632 24.7715C504.182 28.5719 503.457 32.8972 503.457 37.7477C503.457 42.4981 504.232 46.7485 505.782 50.4988C507.332 54.2491 509.607 57.1994 512.608 59.3496C515.658 61.4998 519.358 62.5749 523.709 62.5749C527.109 62.5749 530.034 62.2748 532.484 61.6748C534.935 61.0747 537.11 60.2747 539.01 59.2746C540.91 58.2745 542.685 57.1744 544.336 55.9743ZM517.483 70.2256L519.733 64H522.134L520.408 68.8754C522.759 68.8754 524.784 69.4005 526.484 70.4506C528.234 71.5507 529.109 73.4258 529.109 76.0761C529.109 77.6262 528.684 78.9263 527.834 79.9764C526.984 81.0765 525.884 81.9016 524.534 82.4516C523.234 83.0517 521.859 83.3517 520.408 83.3517C519.108 83.3517 517.858 83.1017 516.658 82.6017C515.458 82.1016 514.458 81.3765 513.658 80.4265L515.008 78.9263C515.658 79.5764 516.383 80.0514 517.183 80.3515C518.033 80.6515 518.783 80.8015 519.433 80.8015C521.183 80.8015 522.484 80.3014 523.334 79.3014C524.184 78.3513 524.609 77.2762 524.609 76.0761C524.609 74.776 524.109 73.5508 523.109 72.4007C522.159 71.3006 520.283 70.5756 517.483 70.2256ZM568.331 28.4468V47.0485C568.331 50.6988 568.406 53.5991 568.556 55.7493C568.706 57.8995 569.006 59.4996 569.456 60.5497C569.956 61.5998 570.681 62.2998 571.632 62.6499C572.632 62.9499 573.982 63.0999 575.682 63.0999L575.832 64H555.58L555.73 63.0999C557.43 63.0999 558.78 62.9499 559.78 62.6499C560.781 62.2998 561.506 61.5998 561.956 60.5497C562.456 59.4996 562.756 57.8995 562.856 55.7493C563.006 53.5991 563.081 50.6988 563.081 47.0485V28.4468C563.081 24.7965 563.006 21.8963 562.856 19.7461C562.756 17.5959 562.456 15.9957 561.956 14.9456C561.506 13.8455 560.781 13.1455 559.78 12.8455C558.78 12.4954 557.43 12.3204 555.73 12.3204L555.58 11.4953H575.832L575.682 12.3204C573.982 12.3204 572.632 12.4954 571.632 12.8455C570.681 13.1455 569.956 13.8455 569.456 14.9456C569.006 15.9957 568.706 17.5959 568.556 19.7461C568.406 21.8963 568.331 24.7965 568.331 28.4468ZM561.431 4.51972C561.431 3.36962 561.856 2.36953 562.706 1.51945C563.556 0.66938 564.556 0.244343 565.706 0.244343C566.856 0.244343 567.856 0.66938 568.706 1.51945C569.556 2.36953 569.981 3.36962 569.981 4.51972C569.981 5.66982 569.556 6.66991 568.706 7.51999C567.856 8.37006 566.856 8.7951 565.706 8.7951C564.556 8.7951 563.556 8.37006 562.706 7.51999C561.856 6.66991 561.431 5.66982 561.431 4.51972Z" fill="#DFE8D7" style="mix-blend-mode:hard-light"/>
<path d="M185.338 127.03V114.079H187.005V119.624H194.449V114.079H196.117V127.03H194.449V121.097H187.005V127.03H185.338ZM211.465 127.223C209.811 127.223 208.499 126.784 207.53 125.905C206.561 125.013 206.076 123.637 206.076 121.776V114.079H207.743V121.776C207.743 122.706 207.892 123.462 208.189 124.044C208.486 124.626 208.913 125.059 209.469 125.343C210.024 125.614 210.69 125.75 211.465 125.75C212.241 125.75 212.906 125.614 213.462 125.343C214.018 125.059 214.444 124.626 214.742 124.044C215.039 123.462 215.188 122.706 215.188 121.776V114.079H216.855V121.776C216.855 123.637 216.37 125.013 215.401 125.905C214.431 126.784 213.12 127.223 211.465 127.223ZM226.814 127.03V114.079H228.481V120.884L234.685 114.079H236.72L231.505 119.76L236.914 127.03H234.879L230.4 120.962L228.481 123.055V127.03H226.814ZM251.238 127.223C249.583 127.223 248.272 126.784 247.302 125.905C246.333 125.013 245.848 123.637 245.848 121.776V114.079H247.515V121.776C247.515 122.706 247.664 123.462 247.961 124.044C248.259 124.626 248.685 125.059 249.241 125.343C249.797 125.614 250.462 125.75 251.238 125.75C252.013 125.75 252.679 125.614 253.234 125.343C253.79 125.059 254.217 124.626 254.514 124.044C254.811 123.462 254.96 122.706 254.96 121.776V114.079H256.627V121.776C256.627 123.637 256.142 125.013 255.173 125.905C254.204 126.784 252.892 127.223 251.238 127.223ZM266.586 127.03V114.079H268.254V120.884L274.457 114.079H276.493L271.278 119.76L276.687 127.03H274.651L270.173 120.962L268.254 123.055V127.03H266.586ZM297.139 127.03V114.079H303.052C304.06 114.079 304.9 114.196 305.572 114.428C306.244 114.648 306.748 115.01 307.084 115.514C307.433 116.005 307.607 116.651 307.607 117.453C307.607 118.228 307.446 118.855 307.123 119.333C306.813 119.798 306.289 120.134 305.552 120.341C306.431 120.535 307.058 120.891 307.433 121.407C307.808 121.924 307.995 122.609 307.995 123.462C307.995 124.755 307.588 125.672 306.774 126.215C305.96 126.758 304.719 127.03 303.052 127.03H297.139ZM298.806 125.595H302.8C303.665 125.595 304.35 125.517 304.855 125.362C305.359 125.207 305.72 124.968 305.94 124.645C306.173 124.309 306.289 123.87 306.289 123.327C306.289 122.784 306.173 122.345 305.94 122.008C305.72 121.672 305.359 121.433 304.855 121.291C304.35 121.136 303.665 121.059 302.8 121.059H298.806V125.595ZM298.806 119.663H302.8C303.937 119.663 304.738 119.514 305.203 119.217C305.669 118.907 305.901 118.364 305.901 117.588C305.901 116.813 305.669 116.277 305.203 115.979C304.738 115.669 303.937 115.514 302.8 115.514H298.806V119.663ZM322.774 127.223C321.12 127.223 319.808 126.784 318.839 125.905C317.869 125.013 317.385 123.637 317.385 121.776V114.079H319.052V121.776C319.052 122.706 319.2 123.462 319.498 124.044C319.795 124.626 320.221 125.059 320.777 125.343C321.333 125.614 321.999 125.75 322.774 125.75C323.549 125.75 324.215 125.614 324.771 125.343C325.327 125.059 325.753 124.626 326.05 124.044C326.348 123.462 326.496 122.706 326.496 121.776V114.079H328.163V121.776C328.163 123.637 327.679 125.013 326.709 125.905C325.74 126.784 324.428 127.223 322.774 127.223ZM324.596 111.986C324.325 111.986 324.105 111.908 323.937 111.753C323.782 111.598 323.705 111.391 323.705 111.133C323.705 110.887 323.782 110.687 323.937 110.532C324.105 110.377 324.325 110.299 324.596 110.299C324.868 110.299 325.081 110.377 325.236 110.532C325.404 110.687 325.488 110.887 325.488 111.133C325.488 111.391 325.404 111.598 325.236 111.753C325.081 111.908 324.868 111.986 324.596 111.986ZM320.952 111.986C320.68 111.986 320.461 111.908 320.293 111.753C320.137 111.598 320.06 111.391 320.06 111.133C320.06 110.887 320.137 110.687 320.293 110.532C320.461 110.377 320.68 110.299 320.952 110.299C321.223 110.299 321.436 110.377 321.591 110.532C321.759 110.687 321.843 110.887 321.843 111.133C321.843 111.391 321.759 111.598 321.591 111.753C321.436 111.908 321.223 111.986 320.952 111.986ZM338.123 127.03V114.079H343.163C344.688 114.079 345.858 114.39 346.672 115.01C347.486 115.63 347.893 116.587 347.893 117.879C347.893 118.991 347.596 119.844 347.002 120.438C346.42 121.02 345.58 121.395 344.481 121.563L348.553 127.03H346.595L342.717 121.679H339.79V127.03H338.123ZM339.79 120.264H342.834C343.958 120.264 344.798 120.089 345.354 119.74C345.922 119.378 346.207 118.764 346.207 117.899C346.207 117.02 345.942 116.406 345.412 116.057C344.882 115.695 344.023 115.514 342.834 115.514H339.79V120.264ZM363.26 127.223C361.916 127.223 360.753 126.939 359.771 126.37C358.789 125.789 358.033 125 357.503 124.005C356.973 122.997 356.708 121.847 356.708 120.555C356.708 119.262 356.973 118.118 357.503 117.123C358.033 116.115 358.789 115.327 359.771 114.758C360.753 114.176 361.916 113.886 363.26 113.886C364.617 113.886 365.781 114.176 366.75 114.758C367.732 115.327 368.488 116.115 369.018 117.123C369.548 118.118 369.813 119.262 369.813 120.555C369.813 121.847 369.548 122.997 369.018 124.005C368.488 125 367.732 125.789 366.75 126.37C365.781 126.939 364.617 127.223 363.26 127.223ZM363.26 125.75C364.256 125.75 365.115 125.537 365.839 125.11C366.563 124.671 367.118 124.063 367.506 123.288C367.907 122.5 368.107 121.588 368.107 120.555C368.107 119.521 367.907 118.616 367.506 117.84C367.118 117.052 366.563 116.445 365.839 116.018C365.115 115.579 364.256 115.359 363.26 115.359C362.265 115.359 361.406 115.579 360.682 116.018C359.958 116.445 359.396 117.052 358.995 117.84C358.608 118.616 358.414 119.521 358.414 120.555C358.414 121.588 358.608 122.5 358.995 123.288C359.396 124.063 359.958 124.671 360.682 125.11C361.406 125.537 362.265 125.75 363.26 125.75ZM383.253 127.223C382.361 127.223 381.547 127.088 380.81 126.816C380.074 126.545 379.343 126.093 378.62 125.459L379.337 124.141C380.035 124.71 380.694 125.123 381.314 125.382C381.935 125.627 382.581 125.75 383.253 125.75C384.248 125.75 385.017 125.55 385.56 125.149C386.103 124.735 386.374 124.154 386.374 123.404C386.374 122.887 386.206 122.461 385.87 122.125C385.547 121.776 385.069 121.537 384.436 121.407L382.206 120.981C381.082 120.774 380.268 120.386 379.764 119.818C379.259 119.236 379.007 118.551 379.007 117.763C379.007 117.052 379.169 116.406 379.492 115.824C379.815 115.243 380.306 114.777 380.965 114.428C381.625 114.067 382.445 113.886 383.428 113.886C384.203 113.886 384.946 114.002 385.657 114.235C386.368 114.454 387.046 114.836 387.693 115.378L386.975 116.697C386.419 116.283 385.864 115.96 385.308 115.727C384.752 115.482 384.138 115.359 383.466 115.359C382.562 115.359 381.877 115.559 381.411 115.96C380.946 116.348 380.713 116.878 380.713 117.55C380.713 118.067 380.875 118.474 381.198 118.771C381.534 119.055 382.019 119.262 382.652 119.391L384.882 119.818C385.993 120.025 386.801 120.451 387.305 121.097C387.822 121.744 388.08 122.461 388.08 123.249C388.08 124.425 387.66 125.382 386.82 126.118C385.993 126.855 384.804 127.223 383.253 127.223ZM402.849 127.223C401.194 127.223 399.883 126.784 398.913 125.905C397.944 125.013 397.459 123.637 397.459 121.776V114.079H399.127V121.776C399.127 122.706 399.275 123.462 399.572 124.044C399.87 124.626 400.296 125.059 400.852 125.343C401.408 125.614 402.073 125.75 402.849 125.75C403.624 125.75 404.29 125.614 404.846 125.343C405.401 125.059 405.828 124.626 406.125 124.044C406.422 123.462 406.571 122.706 406.571 121.776V114.079H408.238V121.776C408.238 123.637 407.753 125.013 406.784 125.905C405.815 126.784 404.503 127.223 402.849 127.223Z" fill="#DFE8D7" style="mix-blend-mode:hard-light"/>
</svg>
