<svg width="594" height="132" viewBox="0 0 594 132" fill="none" xmlns="http://www.w3.org/2000/svg">
<path d="M15.1044 11.4953H58.3082V22.2963L57.4082 22.1463C57.4082 18.896 55.858 16.5708 52.7578 15.1707C49.6575 13.7205 45.2071 12.9955 39.4066 12.9955V47.0485C39.4066 50.6988 39.4816 53.5991 39.6316 55.7493C39.7816 57.8995 40.1316 59.4996 40.6817 60.5497C41.2317 61.5998 42.1068 62.2998 43.3069 62.6499C44.507 62.9499 46.1322 63.0999 48.1823 63.0999L48.3324 64H25.2303L25.3803 63.0999C27.4805 63.0999 29.1057 62.9499 30.2558 62.6499C31.4559 62.2998 32.3309 61.5998 32.881 60.5497C33.431 59.4996 33.7811 57.8995 33.9311 55.7493C34.0811 53.5991 34.1561 50.6988 34.1561 47.0485V12.9955C28.4056 12.9955 23.9302 13.7205 20.7299 15.1707C17.5796 16.5708 16.0045 18.896 16.0045 22.1463L15.1044 22.2963V11.4953ZM122.697 11.4953L122.547 12.3954C120.847 12.3954 119.447 12.5704 118.347 12.9205C117.297 13.2205 116.472 13.9206 115.872 15.0207C115.322 16.0707 114.922 17.6709 114.672 19.8211C114.472 21.9713 114.372 24.8715 114.372 28.5219V43.2232C114.372 47.5735 113.747 51.1739 112.496 54.0241C111.296 56.8244 109.696 58.9996 107.696 60.5497C105.746 62.0998 103.621 63.1999 101.32 63.85C99.0703 64.45 96.8951 64.7501 94.7949 64.7501C89.8444 64.7501 85.8691 63.875 82.8688 62.1248C79.9186 60.3747 77.7684 57.9495 76.4182 54.8492C75.1181 51.6989 74.4681 48.0736 74.4681 43.9732V28.4468C74.4681 24.7965 74.3931 21.8963 74.2431 19.7461C74.093 17.5959 73.768 15.9957 73.268 14.9456C72.8179 13.8956 72.0929 13.2205 71.0928 12.9205C70.1427 12.5704 68.8176 12.3954 67.1174 12.3954L66.9674 11.4953H87.1442L86.9942 12.3954C85.294 12.3954 83.9439 12.5704 82.9438 12.9205C81.9937 13.2205 81.2687 13.8956 80.7686 14.9456C80.3186 15.9957 80.0186 17.5959 79.8686 19.7461C79.7685 21.8963 79.7185 24.7965 79.7185 28.4468V44.3483C79.7185 48.8487 80.4186 52.424 81.8187 55.0742C83.2189 57.7244 85.119 59.6496 87.5192 60.8497C89.9694 61.9998 92.7197 62.5749 95.77 62.5749C98.6202 62.5749 101.32 61.9498 103.871 60.6997C106.421 59.4496 108.496 57.4244 110.096 54.6242C111.696 51.7739 112.496 48.0236 112.496 43.3732V28.5219C112.496 24.8715 112.371 21.9713 112.121 19.8211C111.921 17.6709 111.521 16.0707 110.921 15.0207C110.371 13.9206 109.571 13.2205 108.521 12.9205C107.471 12.5704 106.096 12.3954 104.396 12.3954L104.246 11.4953H122.697ZM181.727 63.0999L181.877 64H171.451C170.101 64 168.851 63.3999 167.701 62.1998C166.551 60.9497 165.426 59.3496 164.325 57.3994C163.275 55.3992 162.15 53.2991 160.95 51.0989C159.8 48.8987 158.5 46.8235 157.05 44.8733C155.65 42.8731 154.025 41.223 152.174 39.9229C150.374 38.5727 148.249 37.8477 145.799 37.7477V47.0485C145.799 50.6988 145.874 53.5991 146.024 55.7493C146.174 57.8995 146.499 59.4996 146.999 60.5497C147.499 61.5998 148.224 62.2998 149.174 62.6499C150.174 62.9499 151.524 63.0999 153.224 63.0999L153.374 64H133.273L133.423 63.0999C135.123 63.0999 136.448 62.9499 137.398 62.6499C138.398 62.2998 139.123 61.5998 139.573 60.5497C140.023 59.4996 140.298 57.8995 140.398 55.7493C140.548 53.5991 140.623 50.6988 140.623 47.0485V28.0718C140.623 24.4215 140.548 21.5462 140.398 19.446C140.298 17.3459 140.023 15.7957 139.573 14.7956C139.123 13.7955 138.398 13.1455 137.398 12.8455C136.448 12.5454 135.123 12.3954 133.423 12.3954L133.273 11.4953H150.674C152.824 11.4953 155 11.6704 157.2 12.0204C159.4 12.3204 161.425 12.9205 163.275 13.8205C165.176 14.7206 166.701 16.0207 167.851 17.7209C169.001 19.371 169.576 21.5462 169.576 24.2465C169.576 26.7967 168.951 29.0469 167.701 30.9971C166.451 32.8972 164.826 34.4474 162.825 35.6475C160.825 36.7976 158.675 37.4976 156.375 37.7477C158.325 38.8978 160 40.3229 161.4 42.023C162.8 43.6732 164.05 45.4484 165.151 47.3485C166.251 49.2487 167.326 51.1239 168.376 52.974C169.426 54.8242 170.551 56.5243 171.751 58.0745C172.951 59.5746 174.351 60.7997 175.951 61.7498C177.552 62.6499 179.477 63.0999 181.727 63.0999ZM145.799 13.2205V36.2475H150.524C152.874 36.2475 155.05 35.8475 157.05 35.0474C159.05 34.2474 160.65 32.9972 161.85 31.2971C163.1 29.5469 163.725 27.2467 163.725 24.3965C163.725 20.6462 162.575 17.8459 160.275 15.9957C158.025 14.1456 154.825 13.2205 150.674 13.2205H145.799ZM221.81 60.6997C221.81 59.5496 221.46 57.9495 220.76 55.8993C220.11 53.8491 219.135 51.0739 217.835 47.5735H194.957C193.907 50.6738 193.107 53.224 192.557 55.2242C192.007 57.2244 191.732 58.7995 191.732 59.9496C191.732 61.3998 192.207 62.2998 193.157 62.6499C194.107 62.9499 195.533 63.0999 197.433 63.0999L197.583 64H180.706L180.856 63.0999C182.156 63.0999 183.281 62.9499 184.232 62.6499C185.232 62.3499 186.157 61.6998 187.007 60.6997C187.857 59.6996 188.757 58.1495 189.707 56.0493C190.657 53.9491 191.757 51.0739 193.007 47.4235L199.683 28.1468C200.683 25.2966 201.433 23.0714 201.933 21.4712C202.433 19.8211 202.758 18.546 202.908 17.6459C203.108 16.7458 203.208 15.9707 203.208 15.3207C203.208 14.1706 202.858 13.3955 202.158 12.9955C201.458 12.5454 200.108 12.3204 198.108 12.3204L197.958 11.4953H210.334L223.61 47.4235C224.96 51.0739 226.06 53.9491 226.91 56.0493C227.81 58.1495 228.635 59.6996 229.386 60.6997C230.136 61.6998 230.936 62.3499 231.786 62.6499C232.636 62.9499 233.736 63.0999 235.086 63.0999L235.236 64H216.484L216.634 63.0999C218.385 63.0999 219.685 62.9749 220.535 62.7249C221.385 62.4249 221.81 61.7498 221.81 60.6997ZM206.133 15.5457L195.558 45.7734H217.234L206.133 15.5457ZM278.31 11.4953H296.912L296.762 12.3204C295.062 12.3204 293.662 12.4954 292.562 12.8455C291.512 13.1455 290.686 13.8205 290.086 14.8706C289.536 15.9207 289.136 17.5209 288.886 19.6711C288.686 21.8213 288.586 24.7215 288.586 28.3718V64.375H286.261L250.933 19.7461V46.8985C250.933 50.5488 251.033 53.4741 251.233 55.6743C251.483 57.8245 251.883 59.4496 252.433 60.5497C253.033 61.5998 253.858 62.2998 254.908 62.6499C255.958 62.9499 257.334 63.0999 259.034 63.0999L259.184 64H240.732L240.882 63.0999C242.582 63.0999 243.957 62.9499 245.007 62.6499C246.108 62.2998 246.933 61.5998 247.483 60.5497C248.083 59.4496 248.483 57.8245 248.683 55.6743C248.933 53.4741 249.058 50.5488 249.058 46.8985V28.3718C249.058 24.7215 248.933 21.8213 248.683 19.6711C248.483 17.5209 248.083 15.9207 247.483 14.8706C246.933 13.8205 246.108 13.1455 245.007 12.8455C243.957 12.4954 242.582 12.3204 240.882 12.3204L240.732 11.4953H250.933L286.711 56.1243V28.3718C286.711 24.7215 286.586 21.8213 286.336 19.6711C286.136 17.5209 285.736 15.9207 285.136 14.8706C284.536 13.8205 283.686 13.1455 282.586 12.8455C281.536 12.4954 280.161 12.3204 278.46 12.3204L278.31 11.4953ZM356.253 55.9743V58.2245C353.803 60.0747 350.953 61.6248 347.703 62.8749C344.502 64.125 340.477 64.7501 335.627 64.7501C331.526 64.7501 327.826 64.05 324.526 62.6499C321.225 61.2498 318.4 59.3246 316.05 56.8744C313.75 54.4242 311.974 51.5739 310.724 48.3236C309.474 45.0233 308.849 41.498 308.849 37.7477C308.849 32.7472 309.874 28.2218 311.924 24.1715C314.025 20.1211 317.025 16.8958 320.925 14.4956C324.826 12.0454 329.526 10.8203 335.027 10.8203C337.777 10.8203 340.452 11.0953 343.052 11.6454C345.702 12.1954 348.028 12.8205 350.028 13.5205C352.078 14.2206 353.578 14.8456 354.528 15.3957V24.9965L353.703 24.8465C352.403 20.1461 350.153 16.9208 346.953 15.1707C343.752 13.4205 339.777 12.5454 335.027 12.5454C330.626 12.5454 326.976 13.6455 324.076 15.8457C321.175 17.9959 319 20.9712 317.55 24.7715C316.1 28.5719 315.375 32.8972 315.375 37.7477C315.375 42.4981 316.15 46.7485 317.7 50.4988C319.25 54.2491 321.525 57.1994 324.526 59.3496C327.576 61.4998 331.276 62.5749 335.627 62.5749C339.027 62.5749 341.952 62.2748 344.402 61.6748C346.853 61.0747 349.028 60.2747 350.928 59.2746C352.828 58.2745 354.603 57.1744 356.253 55.9743ZM329.401 70.2256L331.651 64H334.051L332.326 68.8754C334.677 68.8754 336.702 69.4005 338.402 70.4506C340.152 71.5507 341.027 73.4258 341.027 76.0761C341.027 77.6262 340.602 78.9263 339.752 79.9764C338.902 81.0765 337.802 81.9016 336.452 82.4516C335.152 83.0517 333.776 83.3517 332.326 83.3517C331.026 83.3517 329.776 83.1017 328.576 82.6017C327.376 82.1016 326.376 81.3765 325.576 80.4265L326.926 78.9263C327.576 79.5764 328.301 80.0514 329.101 80.3515C329.951 80.6515 330.701 80.8015 331.351 80.8015C333.101 80.8015 334.401 80.3014 335.252 79.3014C336.102 78.3513 336.527 77.2762 336.527 76.0761C336.527 74.776 336.027 73.5508 335.027 72.4007C334.076 71.3006 332.201 70.5756 329.401 70.2256ZM380.249 28.4468V47.0485C380.249 50.6988 380.324 53.5991 380.474 55.7493C380.624 57.8995 380.924 59.4996 381.374 60.5497C381.874 61.5998 382.599 62.2998 383.549 62.6499C384.549 62.9499 385.9 63.0999 387.6 63.0999L387.75 64H367.498L367.648 63.0999C369.348 63.0999 370.698 62.9499 371.698 62.6499C372.698 62.2998 373.424 61.5998 373.874 60.5497C374.374 59.4996 374.674 57.8995 374.774 55.7493C374.924 53.5991 374.999 50.6988 374.999 47.0485V28.4468C374.999 24.7965 374.924 21.8963 374.774 19.7461C374.674 17.5959 374.374 15.9957 373.874 14.9456C373.424 13.8455 372.698 13.1455 371.698 12.8455C370.698 12.4954 369.348 12.3204 367.648 12.3204L367.498 11.4953H387.75L387.6 12.3204C385.9 12.3204 384.549 12.4954 383.549 12.8455C382.599 13.1455 381.874 13.8455 381.374 14.9456C380.924 15.9957 380.624 17.5959 380.474 19.7461C380.324 21.8963 380.249 24.7965 380.249 28.4468ZM373.349 4.51972C373.349 3.36962 373.774 2.36953 374.624 1.51945C375.474 0.66938 376.474 0.244343 377.624 0.244343C378.774 0.244343 379.774 0.66938 380.624 1.51945C381.474 2.36953 381.899 3.36962 381.899 4.51972C381.899 5.66982 381.474 6.66991 380.624 7.51999C379.774 8.37006 378.774 8.7951 377.624 8.7951C376.474 8.7951 375.474 8.37006 374.624 7.51999C373.774 6.66991 373.349 5.66982 373.349 4.51972ZM400.51 11.4953H435.538V22.2963L434.713 22.1463C434.713 18.646 432.838 16.2958 429.087 15.0957C425.337 13.8455 420.086 13.2205 413.336 13.2205V36.8476C416.186 36.7476 418.436 36.5726 420.086 36.3225C421.787 36.0225 423.037 35.5725 423.837 34.9724C424.637 34.3724 425.137 33.5723 425.337 32.5722C425.587 31.5221 425.712 30.222 425.712 28.6719L426.612 28.5219V46.7485L425.712 46.5985C425.712 44.9983 425.587 43.6982 425.337 42.6981C425.137 41.648 424.637 40.8479 423.837 40.2979C423.037 39.6978 421.787 39.2728 420.086 39.0228C418.436 38.7228 416.186 38.5477 413.336 38.4977V47.0485C413.336 50.6988 413.411 53.5991 413.561 55.7493C413.711 57.8995 414.086 59.4996 414.686 60.5497C415.336 61.5998 416.286 62.2998 417.536 62.6499C418.836 62.9499 420.611 63.0999 422.862 63.0999L423.012 64H400.51L400.66 63.0999C402.36 63.0999 403.685 62.9499 404.635 62.6499C405.635 62.2998 406.36 61.5998 406.81 60.5497C407.31 59.4996 407.635 57.8995 407.785 55.7493C407.935 53.5991 408.01 50.6988 408.01 47.0485V28.4468C408.01 24.7965 407.935 21.8963 407.785 19.7461C407.635 17.5959 407.31 15.9957 406.81 14.9456C406.36 13.8455 405.635 13.1455 404.635 12.8455C403.685 12.4954 402.36 12.3204 400.66 12.3204L400.51 11.4953ZM443.568 11.4953H486.772V22.2963L485.872 22.1463C485.872 18.896 484.322 16.5708 481.222 15.1707C478.121 13.7205 473.671 12.9955 467.87 12.9955V47.0485C467.87 50.6988 467.945 53.5991 468.095 55.7493C468.245 57.8995 468.595 59.4996 469.145 60.5497C469.696 61.5998 470.571 62.2998 471.771 62.6499C472.971 62.9499 474.596 63.0999 476.646 63.0999L476.796 64H453.694L453.844 63.0999C455.944 63.0999 457.569 62.9499 458.72 62.6499C459.92 62.2998 460.795 61.5998 461.345 60.5497C461.895 59.4996 462.245 57.8995 462.395 55.7493C462.545 53.5991 462.62 50.6988 462.62 47.0485V12.9955C456.869 12.9955 452.394 13.7205 449.194 15.1707C446.043 16.5708 444.468 18.896 444.468 22.1463L443.568 22.2963V11.4953ZM544.336 55.9743V58.2245C541.885 60.0747 539.035 61.6248 535.785 62.8749C532.584 64.125 528.559 64.7501 523.709 64.7501C519.608 64.7501 515.908 64.05 512.608 62.6499C509.307 61.2498 506.482 59.3246 504.132 56.8744C501.832 54.4242 500.057 51.5739 498.806 48.3236C497.556 45.0233 496.931 41.498 496.931 37.7477C496.931 32.7472 497.956 28.2218 500.007 24.1715C502.107 20.1211 505.107 16.8958 509.007 14.4956C512.908 12.0454 517.608 10.8203 523.109 10.8203C525.859 10.8203 528.534 11.0953 531.134 11.6454C533.785 12.1954 536.11 12.8205 538.11 13.5205C540.16 14.2206 541.66 14.8456 542.61 15.3957V24.9965L541.785 24.8465C540.485 20.1461 538.235 16.9208 535.035 15.1707C531.834 13.4205 527.859 12.5454 523.109 12.5454C518.708 12.5454 515.058 13.6455 512.158 15.8457C509.257 17.9959 507.082 20.9712 505.632 24.7715C504.182 28.5719 503.457 32.8972 503.457 37.7477C503.457 42.4981 504.232 46.7485 505.782 50.4988C507.332 54.2491 509.607 57.1994 512.608 59.3496C515.658 61.4998 519.358 62.5749 523.709 62.5749C527.109 62.5749 530.034 62.2748 532.484 61.6748C534.935 61.0747 537.11 60.2747 539.01 59.2746C540.91 58.2745 542.685 57.1744 544.336 55.9743ZM517.483 70.2256L519.733 64H522.134L520.408 68.8754C522.759 68.8754 524.784 69.4005 526.484 70.4506C528.234 71.5507 529.109 73.4258 529.109 76.0761C529.109 77.6262 528.684 78.9263 527.834 79.9764C526.984 81.0765 525.884 81.9016 524.534 82.4516C523.234 83.0517 521.859 83.3517 520.408 83.3517C519.108 83.3517 517.858 83.1017 516.658 82.6017C515.458 82.1016 514.458 81.3765 513.658 80.4265L515.008 78.9263C515.658 79.5764 516.383 80.0514 517.183 80.3515C518.033 80.6515 518.783 80.8015 519.433 80.8015C521.183 80.8015 522.484 80.3014 523.334 79.3014C524.184 78.3513 524.609 77.2762 524.609 76.0761C524.609 74.776 524.109 73.5508 523.109 72.4007C522.159 71.3006 520.283 70.5756 517.483 70.2256ZM568.331 28.4468V47.0485C568.331 50.6988 568.406 53.5991 568.556 55.7493C568.706 57.8995 569.006 59.4996 569.456 60.5497C569.956 61.5998 570.681 62.2998 571.632 62.6499C572.632 62.9499 573.982 63.0999 575.682 63.0999L575.832 64H555.58L555.73 63.0999C557.43 63.0999 558.78 62.9499 559.78 62.6499C560.781 62.2998 561.506 61.5998 561.956 60.5497C562.456 59.4996 562.756 57.8995 562.856 55.7493C563.006 53.5991 563.081 50.6988 563.081 47.0485V28.4468C563.081 24.7965 563.006 21.8963 562.856 19.7461C562.756 17.5959 562.456 15.9957 561.956 14.9456C561.506 13.8455 560.781 13.1455 559.78 12.8455C558.78 12.4954 557.43 12.3204 555.73 12.3204L555.58 11.4953H575.832L575.682 12.3204C573.982 12.3204 572.632 12.4954 571.632 12.8455C570.681 13.1455 569.956 13.8455 569.456 14.9456C569.006 15.9957 568.706 17.5959 568.556 19.7461C568.406 21.8963 568.331 24.7965 568.331 28.4468ZM561.431 4.51972C561.431 3.36962 561.856 2.36953 562.706 1.51945C563.556 0.66938 564.556 0.244343 565.706 0.244343C566.856 0.244343 567.856 0.66938 568.706 1.51945C569.556 2.36953 569.981 3.36962 569.981 4.51972C569.981 5.66982 569.556 6.66991 568.706 7.51999C567.856 8.37006 566.856 8.7951 565.706 8.7951C564.556 8.7951 563.556 8.37006 562.706 7.51999C561.856 6.66991 561.431 5.66982 561.431 4.51972Z" fill="#DFE8D7" style="mix-blend-mode:hard-light"/>
<path d="M227.879 114.459H233.19V115.021C232.88 115.138 232.57 115.241 232.26 115.331C231.95 115.409 231.639 115.467 231.329 115.506V127.021H235.788L236.932 123.9H237.436C237.475 124.172 237.507 124.488 237.533 124.85C237.572 125.199 237.598 125.567 237.61 125.955C237.636 126.33 237.649 126.698 237.649 127.06C237.649 127.422 237.643 127.745 237.63 128.03H227.879V127.467C228.189 127.325 228.473 127.222 228.732 127.157C228.99 127.093 229.236 127.041 229.468 127.002V115.506C229.171 115.454 228.887 115.39 228.615 115.312C228.344 115.222 228.098 115.125 227.879 115.021V114.459ZM249.045 128.03H244.741V127.467C245.207 127.261 245.672 127.105 246.137 127.002L251.042 114.226H251.604L256.509 127.002C256.767 127.054 257.019 127.112 257.265 127.177C257.523 127.241 257.762 127.338 257.982 127.467V128.03H253.019V127.467C253.278 127.364 253.543 127.273 253.814 127.196C254.086 127.118 254.35 127.054 254.609 127.002L253.291 123.454H248.657L247.378 127.002C247.921 127.08 248.476 127.235 249.045 127.467V128.03ZM249.045 122.446H252.961L251.43 118.336L251.061 116.669H251.022L250.538 118.375L249.045 122.446ZM278.431 115.506C278.159 115.467 277.888 115.409 277.617 115.331C277.345 115.241 277.061 115.138 276.764 115.021V114.459H281.106V115.021C280.667 115.215 280.201 115.377 279.71 115.506L276.473 128.03L275.271 128.262L272.15 117.716L269.087 128.03L267.904 128.262L264.473 115.506C264.214 115.441 263.962 115.37 263.717 115.293C263.471 115.215 263.232 115.125 262.999 115.021V114.459H268.04V115.021C267.794 115.112 267.542 115.202 267.284 115.293C267.025 115.37 266.747 115.441 266.45 115.506L268.369 123.319L268.796 125.839H268.835L269.513 123.28L272.13 114.459H272.789L275.6 123.28L276.163 125.8H276.201L276.647 123.241L278.431 115.506ZM303.202 127.002C303.771 127.08 304.326 127.235 304.869 127.467V128.03H299.945V127.467C300.165 127.364 300.391 127.273 300.624 127.196C300.856 127.118 301.095 127.054 301.341 127.002V115.506C301.056 115.441 300.798 115.37 300.565 115.293C300.333 115.202 300.126 115.112 299.945 115.021V114.459H309.037C309.024 114.963 308.998 115.48 308.96 116.01C308.934 116.54 308.889 117.07 308.824 117.6H308.32L307.525 115.467H303.202V120.992H306.556L307.351 119.558H307.796C307.822 119.855 307.842 120.172 307.855 120.508C307.868 120.831 307.874 121.16 307.874 121.496C307.874 121.845 307.868 122.188 307.855 122.524C307.842 122.86 307.822 123.176 307.796 123.474H307.351L306.556 121.981H303.202V127.002ZM322.607 128.03H317.644V127.467C318.148 127.235 318.665 127.08 319.195 127.002V115.506C318.936 115.454 318.678 115.39 318.419 115.312C318.161 115.222 317.902 115.125 317.644 115.021V114.459H322.607V115.021C322.374 115.125 322.122 115.222 321.85 115.312C321.579 115.39 321.314 115.454 321.056 115.506V127.002C321.327 127.054 321.598 127.118 321.87 127.196C322.141 127.273 322.387 127.364 322.607 127.467V128.03ZM334.327 127.002C334.624 127.067 334.908 127.138 335.18 127.215C335.451 127.28 335.716 127.364 335.975 127.467V128.03H330.876V127.467C331.16 127.338 331.432 127.241 331.69 127.177C331.949 127.112 332.207 127.054 332.466 127.002V115.506C332.13 115.441 331.832 115.37 331.574 115.293C331.315 115.202 331.083 115.112 330.876 115.021V114.459H332.582C333.099 114.459 333.661 114.433 334.269 114.382C334.889 114.33 335.49 114.304 336.072 114.304C336.705 114.304 337.293 114.375 337.836 114.517C338.391 114.659 338.87 114.886 339.27 115.196C339.671 115.506 339.981 115.9 340.201 116.378C340.434 116.857 340.55 117.432 340.55 118.104C340.55 119.047 340.298 119.829 339.794 120.449C339.303 121.07 338.631 121.516 337.778 121.787C338.333 122.666 338.915 123.538 339.522 124.404C340.13 125.27 340.763 126.13 341.422 126.983L342.469 127.545V128.03H340.123L339.387 127.487C339.025 127.034 338.695 126.595 338.398 126.168C338.101 125.729 337.823 125.29 337.564 124.85C337.306 124.398 337.06 123.945 336.828 123.493C336.608 123.028 336.382 122.537 336.149 122.02H334.327V127.002ZM335.645 115.312C335.335 115.312 335.076 115.319 334.87 115.331C334.676 115.344 334.495 115.37 334.327 115.409V121.206H335.723C336.614 121.206 337.319 120.921 337.836 120.353C338.366 119.784 338.631 119.034 338.631 118.104C338.631 117.147 338.353 116.443 337.797 115.991C337.241 115.538 336.524 115.312 335.645 115.312ZM365.669 128.03H360.861V127.467C361.12 127.364 361.378 127.28 361.637 127.215C361.895 127.138 362.16 127.067 362.432 127.002V118.278L362.509 116.01H362.354L361.714 118.084L357.74 128.03H357.236L353.456 118.084L352.758 115.816H352.583L352.603 118.278V127.002C352.848 127.054 353.094 127.118 353.339 127.196C353.585 127.273 353.83 127.364 354.076 127.467V128.03H350.024V127.467C350.27 127.364 350.522 127.273 350.78 127.196C351.052 127.105 351.323 127.034 351.595 126.983V115.506C351.323 115.454 351.052 115.39 350.78 115.312C350.522 115.222 350.263 115.125 350.005 115.021V114.459H353.979L357.352 123.319L358.011 125.315H358.031L358.69 123.28L362.18 114.459H365.688V115.021C365.456 115.125 365.217 115.222 364.971 115.312C364.726 115.39 364.474 115.454 364.215 115.506V127.021C364.487 127.073 364.739 127.138 364.971 127.215C365.217 127.28 365.449 127.364 365.669 127.467V128.03Z" fill="#DFE8D7" style="mix-blend-mode:hard-light"/>
</svg>
