<svg width="587" height="69" viewBox="0 0 587 69" fill="none" xmlns="http://www.w3.org/2000/svg">
<path d="M26.9273 53.4047H20.1017V5.02543H-8.04602e-05V0.900064H47.0291V5.02543H26.9273V53.4047ZM59.7796 0.900064H66.6052V35.1781C66.6052 36.1782 66.6302 37.1783 66.6802 38.1784C66.7303 39.1785 66.9053 40.1786 67.2053 41.1786C67.5053 42.1287 67.9554 43.1038 68.5554 44.1039C69.1555 45.104 70.0305 46.1041 71.1806 47.1042C72.6308 48.4043 74.1559 49.3794 75.7561 50.0294C77.4062 50.6795 79.2814 51.0045 81.3816 51.0045C83.8318 51.0045 86.182 50.6545 88.4322 49.9544C90.6824 49.2544 92.7076 47.9292 94.5077 45.9791C95.5078 44.879 96.2579 43.7789 96.7579 42.6788C97.308 41.5787 97.708 40.4786 97.958 39.3785C98.208 38.2284 98.3581 37.1033 98.4081 36.0032C98.4581 34.8531 98.4831 33.728 98.4831 32.6279V0.900064H101.783V35.1031C101.783 37.7533 101.358 40.2536 100.508 42.6038C99.6582 44.904 98.3831 46.9291 96.6829 48.6793C95.0328 50.4295 92.9576 51.8046 90.4574 52.8047C88.0071 53.8048 85.1819 54.3048 81.9816 54.3048C76.8812 54.3048 72.8558 53.6047 69.9055 52.2046C66.9553 50.7545 64.7301 48.9793 63.2299 46.8791C61.7298 44.729 60.7797 42.4287 60.3797 39.9785C59.9797 37.4783 59.7796 35.2031 59.7796 33.1529V0.900064ZM122.015 0.900064H139.041C142.391 0.900064 145.167 1.37511 147.367 2.32519C149.567 3.22527 151.292 4.37537 152.542 5.7755C153.842 7.12562 154.743 8.60075 155.243 10.2009C155.793 11.801 156.068 13.2762 156.068 14.6263C156.068 16.1264 155.818 17.6766 155.318 19.2767C154.818 20.8268 154.017 22.277 152.917 23.6271C151.817 24.9772 150.392 26.1023 148.642 27.0024C146.942 27.9025 144.892 28.4275 142.491 28.5775V28.8775L143.242 29.2526C143.842 29.5526 144.342 29.9276 144.742 30.3777C145.192 30.8277 145.742 31.5528 146.392 32.5529C147.092 33.553 148.017 34.9781 149.167 36.8283C150.317 38.6284 151.942 41.0536 154.042 44.1039C154.743 45.154 155.418 46.1041 156.068 46.9542C156.718 47.7542 157.393 48.4543 158.093 49.0543C158.793 49.6044 159.543 50.0294 160.343 50.3295C161.143 50.6295 162.068 50.7795 163.118 50.7795C163.368 50.7795 163.618 50.7795 163.868 50.7795C164.118 50.7295 164.368 50.6795 164.618 50.6295V53.4047C163.918 53.8048 163.218 54.0548 162.518 54.1548C161.818 54.2548 160.918 54.3048 159.818 54.3048C158.318 54.3048 157.018 54.1048 155.918 53.7048C154.868 53.3047 153.917 52.7797 153.067 52.1296C152.217 51.4295 151.417 50.6045 150.667 49.6544C149.967 48.7043 149.242 47.6542 148.492 46.5041L142.566 37.7283C141.666 36.3282 140.891 35.1531 140.241 34.203C139.591 33.2529 138.891 32.4779 138.141 31.8778C137.391 31.2778 136.541 30.8527 135.591 30.6027C134.691 30.3527 133.541 30.2277 132.141 30.2277H128.84V53.4047H122.015V0.900064ZM128.84 4.20036V26.8524H136.566C138.566 26.8524 140.316 26.5023 141.816 25.8023C143.367 25.1022 144.667 24.2021 145.717 23.102C146.767 21.9519 147.542 20.7018 148.042 19.3517C148.592 17.9516 148.867 16.5765 148.867 15.2263C148.867 13.6262 148.567 12.1511 147.967 10.8009C147.417 9.45082 146.592 8.30072 145.492 7.35064C144.392 6.35055 143.067 5.57548 141.516 5.02543C140.016 4.47538 138.316 4.20036 136.416 4.20036H128.84ZM210.28 37.9534H184.403L177.803 53.4047H174.352L196.554 0.900064H200.305L224.757 53.4047H217.481L210.28 37.9534ZM208.705 34.5781L196.929 9.30081H196.629L185.828 34.5781H208.705ZM283.594 0.900064H287.044V54.3048H286.669L245.04 13.2762H244.74V53.4047H241.29V-1.36252e-05H241.665L283.294 41.0286H283.594V0.900064ZM330.068 67.656L330.669 65.6308C330.919 65.7308 331.194 65.7808 331.494 65.7808C331.794 65.7808 332.119 65.7808 332.469 65.7808C333.169 65.7808 333.919 65.7308 334.719 65.6308C335.569 65.5308 336.344 65.3558 337.044 65.1058C337.744 64.8557 338.319 64.4807 338.769 63.9807C339.219 63.4806 339.444 62.8056 339.444 61.9555C339.444 61.3554 339.119 60.7554 338.469 60.1553C337.819 59.5553 336.544 59.2552 334.644 59.2552C334.294 59.2552 333.819 59.2802 333.219 59.3302C332.669 59.3803 332.219 59.4553 331.869 59.5553L333.444 54.3048C328.493 54.2548 324.218 53.4297 320.618 51.8296C317.017 50.2294 314.067 48.1543 311.767 45.604C309.467 43.0038 307.766 40.0535 306.666 36.7532C305.566 33.453 305.016 30.0777 305.016 26.6273C305.016 22.577 305.716 18.9267 307.116 15.6764C308.517 12.3761 310.492 9.57584 313.042 7.27563C315.592 4.92542 318.642 3.12526 322.193 1.87515C325.793 0.625041 329.768 -1.36252e-05 334.119 -1.36252e-05C337.119 -1.36252e-05 339.794 0.300012 342.145 0.900064C344.495 1.50012 346.545 2.32519 348.295 3.37528C350.045 4.42538 351.495 5.67549 352.645 7.12562C353.846 8.57575 354.821 10.1509 355.571 11.851H350.02C349.67 10.8009 349.045 9.77585 348.145 8.77576C347.295 7.72567 346.17 6.80059 344.77 6.00052C343.42 5.20045 341.845 4.55039 340.044 4.05034C338.294 3.5503 336.344 3.30028 334.194 3.30028C331.044 3.30028 328.118 3.87533 325.418 5.02543C322.768 6.17553 320.468 7.77567 318.517 9.82586C316.567 11.876 315.042 14.3263 313.942 17.1765C312.892 19.9768 312.367 23.077 312.367 26.4773C312.367 29.6776 312.867 32.7529 313.867 35.7032C314.917 38.6534 316.442 41.2536 318.442 43.5038C320.443 45.754 322.943 47.5542 325.943 48.9043C328.943 50.2544 332.394 50.9295 336.294 50.9295C343.295 50.9295 349.345 48.5293 354.446 43.7289L356.696 45.754C356.096 46.5041 355.221 47.3542 354.071 48.3043C352.92 49.2044 351.47 50.0794 349.72 50.9295C348.02 51.7296 346.02 52.4546 343.72 53.1047C341.469 53.7048 338.894 54.0798 335.994 54.2298L335.319 56.705C335.619 56.655 335.919 56.63 336.219 56.63C336.519 56.63 336.819 56.63 337.119 56.63C338.769 56.63 340.269 57.0801 341.619 57.9801C342.97 58.9302 343.645 60.2053 343.645 61.8055C343.645 62.9556 343.395 63.9057 342.895 64.6557C342.395 65.4558 341.744 66.1059 340.944 66.6059C340.144 67.1559 339.219 67.531 338.169 67.731C337.169 67.981 336.144 68.106 335.094 68.106C334.244 68.106 333.369 68.056 332.469 67.956C331.619 67.856 330.819 67.756 330.068 67.656ZM375.432 0.900064H382.257V53.4047H375.432V0.900064ZM408.52 0.900064H442.423V5.02543H415.345V23.8521H438.597V27.3024H415.345V53.4047H408.52V0.900064ZM478.318 53.4047H471.492V5.02543H451.391V0.900064H498.42V5.02543H478.318V53.4047ZM533.972 67.656L534.572 65.6308C534.822 65.7308 535.097 65.7808 535.397 65.7808C535.697 65.7808 536.022 65.7808 536.373 65.7808C537.073 65.7808 537.823 65.7308 538.623 65.6308C539.473 65.5308 540.248 65.3558 540.948 65.1058C541.648 64.8557 542.223 64.4807 542.673 63.9807C543.123 63.4806 543.348 62.8056 543.348 61.9555C543.348 61.3554 543.023 60.7554 542.373 60.1553C541.723 59.5553 540.448 59.2552 538.548 59.2552C538.198 59.2552 537.723 59.2802 537.123 59.3302C536.573 59.3803 536.122 59.4553 535.772 59.5553L537.348 54.3048C532.397 54.2548 528.122 53.4297 524.521 51.8296C520.921 50.2294 517.971 48.1543 515.671 45.604C513.37 43.0038 511.67 40.0535 510.57 36.7532C509.47 33.453 508.92 30.0777 508.92 26.6273C508.92 22.577 509.62 18.9267 511.02 15.6764C512.42 12.3761 514.396 9.57584 516.946 7.27563C519.496 4.92542 522.546 3.12526 526.097 1.87515C529.697 0.625041 533.672 -1.36252e-05 538.023 -1.36252e-05C541.023 -1.36252e-05 543.698 0.300012 546.048 0.900064C548.399 1.50012 550.449 2.32519 552.199 3.37528C553.949 4.42538 555.399 5.67549 556.549 7.12562C557.749 8.57575 558.724 10.1509 559.475 11.851H553.924C553.574 10.8009 552.949 9.77585 552.049 8.77576C551.199 7.72567 550.074 6.80059 548.674 6.00052C547.323 5.20045 545.748 4.55039 543.948 4.05034C542.198 3.5503 540.248 3.30028 538.098 3.30028C534.947 3.30028 532.022 3.87533 529.322 5.02543C526.672 6.17553 524.371 7.77567 522.421 9.82586C520.471 11.876 518.946 14.3263 517.846 17.1765C516.796 19.9768 516.271 23.077 516.271 26.4773C516.271 29.6776 516.771 32.7529 517.771 35.7032C518.821 38.6534 520.346 41.2536 522.346 43.5038C524.346 45.754 526.847 47.5542 529.847 48.9043C532.847 50.2544 536.298 50.9295 540.198 50.9295C547.198 50.9295 553.249 48.5293 558.349 43.7289L560.6 45.754C560 46.5041 559.125 47.3542 557.974 48.3043C556.824 49.2044 555.374 50.0794 553.624 50.9295C551.924 51.7296 549.924 52.4546 547.624 53.1047C545.373 53.7048 542.798 54.0798 539.898 54.2298L539.223 56.705C539.523 56.655 539.823 56.63 540.123 56.63C540.423 56.63 540.723 56.63 541.023 56.63C542.673 56.63 544.173 57.0801 545.523 57.9801C546.873 58.9302 547.548 60.2053 547.548 61.8055C547.548 62.9556 547.298 63.9057 546.798 64.6557C546.298 65.4558 545.648 66.1059 544.848 66.6059C544.048 67.1559 543.123 67.531 542.073 67.731C541.073 67.981 540.048 68.106 538.998 68.106C538.148 68.106 537.273 68.056 536.373 67.956C535.522 67.856 534.722 67.756 533.972 67.656ZM579.336 0.900064H586.161V53.4047H579.336V0.900064Z" fill="black"/>
</svg>
